<svg width="163" height="230" viewBox="0 0 163 230" fill="none" xmlns="http://www.w3.org/2000/svg">
<g clip-path="url(#clip0_49_6)">
<path d="M81.3276 104.924V99.7096L77.6881 98.1699C77.5168 98.6278 77.3649 99.0745 77.2305 99.5088C79.2144 100.568 80.6886 102.554 81.3276 104.924Z" fill="white"/>
<path d="M93.9208 203.36C92.4475 203.904 92.2224 205.561 92.7917 207.102C93.346 208.6 94.6407 209.648 96.0422 209.13C97.4546 208.609 97.7641 206.992 97.1754 205.399C96.6596 204.004 95.4054 202.812 93.9208 203.36Z" fill="white"/>
<path d="M67.1085 31.9186C68.286 31.4312 69.081 30.7007 69.4932 29.7273C69.9006 28.7413 69.8396 27.5917 69.3036 26.2968C68.7936 25.0655 68.0398 24.2476 67.0522 23.8681C66.0594 23.4758 64.9932 23.5159 63.8665 23.9823C63.416 24.1833 63.0119 24.4251 62.6562 24.6765L65.7942 32.2541C66.219 32.2421 66.602 32.1281 67.1085 31.9186Z" fill="white"/>
<path d="M119.6 189.488C118.818 188.832 117.941 189.221 117.274 190.016L116.77 190.617L118.955 192.45C119.1 192.33 119.284 192.128 119.501 191.869C120.132 191.116 120.434 190.187 119.6 189.488Z" fill="white"/>
<path d="M135.622 101.894C134.857 102.478 134.516 103.207 134.587 104.08C134.661 104.996 135.117 105.687 135.968 106.154C136.82 106.621 137.883 106.81 139.143 106.708C140.526 106.596 141.585 106.236 142.321 105.626C143.059 105.03 143.4 104.315 143.334 103.496C143.255 102.692 142.815 102.026 142.041 101.498C141.268 100.969 140.176 100.755 138.779 100.868C137.45 100.976 136.39 101.323 135.622 101.894Z" fill="white"/>
<path d="M116.826 187.461C116.154 186.897 115.469 187.178 114.852 187.913C114.572 188.248 114.436 188.461 114.363 188.599L116.209 190.147L116.763 189.487C117.408 188.718 117.379 187.924 116.826 187.461Z" fill="white"/>
<path d="M81.3257 112.652V107.438L76.25 105.291C76.2366 105.917 76.2593 106.428 76.2891 106.807L76.6508 106.96C78.9257 107.923 80.6261 110.058 81.3257 112.652Z" fill="white"/>
<path d="M104.183 197.846C102.905 198.76 103.124 200.417 104.079 201.754C105.008 203.054 106.532 203.724 107.749 202.855C108.974 201.979 108.847 200.337 107.859 198.956C106.994 197.746 105.47 196.926 104.183 197.846Z" fill="white"/>
<path d="M47.2405 48.3725C48.0232 47.3671 48.3535 46.3397 48.2309 45.289C48.0978 44.2303 47.4771 43.2608 46.3715 42.3999C45.3202 41.5809 44.2608 41.2421 43.215 41.4C42.1583 41.5495 41.2513 42.1106 40.5022 43.0728C40.2101 43.4703 39.9782 43.8801 39.793 44.2738L46.2639 49.3137C46.6272 49.0932 46.9037 48.8047 47.2405 48.3725Z" fill="white"/>
<path d="M82.1484 76.4758V79.3064C82.5164 79.0222 82.7273 78.8774 82.7273 78.8774C83.212 78.5425 83.6797 78.2089 84.1346 77.8762C84.7411 77.223 85.4426 76.6793 86.2215 76.2777C87.4708 75.2746 88.5896 74.2859 89.5927 73.3174C89.5343 73.3439 89.4783 73.3748 89.4192 73.3999L82.1484 76.4758Z" fill="white"/>
<path d="M74.1749 205.105L74.1533 205.101C73.9574 205.514 73.7487 205.935 73.5184 206.352L72.3789 208.328L74.5486 208.772L74.2751 206.519C74.2129 206.008 74.1951 205.551 74.1749 205.105Z" fill="white"/>
<path d="M47.7502 187.776C46.7375 186.574 45.103 186.925 43.8474 187.984C42.6259 189.014 42.0801 190.587 43.0436 191.73C44.014 192.881 45.6401 192.624 46.9377 191.529C48.0745 190.571 48.77 188.985 47.7502 187.776Z" fill="white"/>
<path d="M88.0041 24.9701C88.1178 23.6423 87.8243 22.5689 87.122 21.7778C86.4209 20.9729 85.456 20.5178 84.2417 20.4134C83.7491 20.385 83.2797 20.4134 82.8478 20.473L82.1484 28.6459C82.5315 28.8308 82.9238 28.9054 83.4702 28.9524C84.7391 29.0614 85.7806 28.7784 86.595 28.1039C87.4096 27.4154 87.8844 26.3666 88.0041 24.9701Z" fill="white"/>
<path d="M27.2717 73.2057C26.7335 73.0388 26.2305 73.0833 25.7453 73.3486C25.2642 73.6013 24.9222 74.0542 24.7233 74.6957C24.6258 75.0096 24.5717 75.3229 24.5703 75.6524L28.3101 76.8132C28.3434 76.7515 28.3639 76.6865 28.3841 76.6209L28.5019 76.2414C28.9608 74.7629 28.4879 73.5974 27.2717 73.2057Z" fill="white"/>
<path d="M81.3274 120.381V115.167L77.5117 113.553C77.6939 114.224 77.8898 114.879 78.0991 115.517C79.6424 116.644 80.7857 118.373 81.3274 120.381Z" fill="white"/>
<path d="M66.9923 204.222C67.3881 203.34 66.9344 202.674 66.0235 202.252C65.6055 202.064 65.2889 201.97 65.1313 201.948L64.0117 204.438L64.8971 204.836C65.8227 205.253 66.6418 205.001 66.9923 204.222Z" fill="white"/>
<path d="M81.3258 91.9812L81.0652 91.8711C80.5713 92.5683 80.1265 93.2562 79.7266 93.9318C80.4489 94.8713 80.9983 95.9813 81.3258 97.1951V91.9812Z" fill="white"/>
<path d="M122.691 183.676L123.913 181.829L121.721 181.243C121.223 181.11 120.793 180.956 120.372 180.809L120.359 180.826C120.67 181.162 120.983 181.513 121.284 181.882L122.691 183.676Z" fill="white"/>
<path d="M52.1133 33.3809L53.196 37.1343L55.5976 35.1583L52.1133 33.3809Z" fill="white"/>
<path d="M137.14 133.929L136.684 137.005L140.46 135.987L137.14 133.929Z" fill="white"/>
<path d="M139.882 119.122C139.817 119.435 139.78 119.708 139.772 119.968C139.724 121.393 140.465 122.24 141.783 122.285C142.786 122.318 143.557 121.44 143.603 120.084C143.608 119.906 143.604 119.632 143.576 119.247L139.882 119.122Z" fill="white"/>
<path d="M135.279 118.968C135.143 119.347 135.089 119.715 135.076 120.112C135.032 121.44 135.782 122.44 137.086 122.483C138.295 122.524 139.247 121.583 139.305 119.871C139.311 119.665 139.293 119.39 139.288 119.102L135.279 118.968Z" fill="white"/>
<path d="M122.788 57.7716C123.758 57.827 124.798 57.5399 125.892 56.9058C127.092 56.2095 127.893 55.4276 128.296 54.5607C128.705 53.7056 128.706 52.9131 128.294 52.202C127.876 51.5094 127.193 51.0983 126.267 50.954C125.342 50.8098 124.264 51.0868 123.051 51.7905C121.898 52.459 121.09 53.2292 120.644 54.0742C120.203 54.9317 120.209 55.7357 120.65 56.4941C121.11 57.288 121.819 57.7161 122.788 57.7716Z" fill="white"/>
<path d="M81.3098 7.10254C39.1873 7.10254 4.91797 55.6422 4.91797 115.305C4.91797 174.969 39.1873 223.509 81.3098 223.509C123.432 223.509 157.702 174.969 157.702 115.305C157.702 55.6422 123.433 7.10254 81.3098 7.10254ZM109.164 210.289C100.413 215.701 91.1131 218.445 81.5237 218.445C71.9343 218.445 62.6347 215.701 53.8838 210.289C45.4508 205.074 37.8806 197.613 31.3837 188.114C18.0496 168.619 10.7064 142.709 10.7064 115.156C10.7064 87.6035 18.0496 61.6934 31.3837 42.198C37.8806 32.699 45.4508 25.2383 53.8838 20.0233C62.6347 14.6116 71.934 11.8676 81.5237 11.8676C91.1131 11.8676 100.413 14.6116 109.164 20.0233C117.597 25.2383 125.167 32.699 131.664 42.198C144.998 61.6934 152.341 87.6038 152.341 115.156C152.341 142.708 144.998 168.619 131.664 188.114C125.167 197.613 117.597 205.074 109.164 210.289Z" fill="white"/>
<path d="M130.76 42.8157C117.592 23.5636 100.105 12.9609 81.5214 12.9609C62.9373 12.9609 45.4509 23.5636 32.2835 42.8154C19.0726 62.1308 11.7969 87.8221 11.7969 115.157C11.7969 142.491 19.0723 168.182 32.2835 187.498C45.4509 206.75 62.9373 217.352 81.5214 217.352C100.105 217.352 117.592 206.749 130.76 187.498C143.97 168.182 151.246 142.491 151.246 115.157C151.246 87.8221 143.97 62.1311 130.76 42.8157ZM143.885 103.52C143.99 104.817 143.597 105.921 142.72 106.831C141.843 107.74 140.699 108.259 139.288 108.373C137.878 108.487 136.693 108.144 135.703 107.33C134.713 106.517 134.155 105.421 134.045 104.056C133.952 102.743 134.345 101.639 135.209 100.731C136.1 99.8205 137.243 99.3017 138.627 99.2033C140.065 99.0867 141.281 99.4558 142.245 100.299C143.209 101.142 143.766 102.224 143.885 103.52ZM130.864 50.7249L131.586 51.9691L131.432 52.0587L128.786 50.9484L128.491 50.4389L130.864 50.7249ZM122.198 50.3512C123.446 49.6275 124.702 49.4371 125.935 49.783C127.168 50.1291 128.136 50.8662 128.8 51.9855C129.454 53.1113 129.574 54.277 129.173 55.4755C128.772 56.6746 127.963 57.6346 126.739 58.3446C125.515 59.0549 124.297 59.2549 123.054 58.9465C121.811 58.638 120.836 57.8886 120.149 56.7038C119.501 55.5594 119.38 54.3937 119.769 53.202C120.182 51.9961 120.991 51.0358 122.198 50.3512ZM111.399 37.266C112.434 36.2806 113.615 35.8336 114.942 35.9257C116.279 36.0082 117.433 36.5795 118.424 37.6411C118.882 38.1317 119.222 38.6768 119.581 39.4843C119.732 39.8876 119.797 39.9572 119.872 40.0375C120.021 40.217 120.301 40.2359 120.552 40.0209L120.664 40.1408L118.528 42.3428L118.386 42.2313C119.268 40.9011 119.333 39.3792 118.145 38.1074C117.444 37.3564 116.583 36.998 115.562 37.0327C114.552 37.0578 113.564 37.5304 112.57 38.459C111.566 39.3975 111.026 40.3695 110.941 41.3863C110.866 42.4127 111.193 43.3066 111.932 44.0978C112.764 44.9889 113.971 45.4359 115.451 45.3291L115.446 45.7271C113.69 45.9607 112.262 45.4774 111.139 44.2756C110.195 43.2645 109.732 42.0843 109.76 40.7457C109.809 39.4081 110.355 38.2416 111.399 37.266ZM94.4424 80.5015C94.4424 84.2405 92.4333 87.58 89.4162 88.8566L82.1456 91.9325V96.8113C82.9048 94.3924 84.5435 92.418 86.7042 91.5039L94.4427 88.2302C94.4427 91.9694 92.4336 95.3087 89.4165 96.5853L82.1459 99.6612V104.54C82.9051 102.121 84.5437 100.147 86.7044 99.2329L94.443 95.9592C94.443 99.6981 92.4339 103.038 89.4167 104.314L82.1462 107.39V112.268C82.9054 109.849 84.544 107.875 86.7047 106.961L94.4432 103.688C94.4432 107.427 92.4342 110.766 89.417 112.043L82.1465 115.119V119.997C82.9057 117.578 84.5443 115.604 86.705 114.69L94.4435 111.416C94.4435 115.155 92.4344 118.494 89.4173 119.771L82.1467 122.847V124.237C82.4541 124.739 82.7606 125.217 83.0628 125.669C83.9422 124.209 85.1978 123.056 86.7053 122.418L94.4438 119.145C94.4438 122.884 92.4347 126.223 89.4175 127.499L85.6237 129.105C85.9802 129.533 86.3018 129.9 86.5796 130.207C86.6219 130.188 86.6624 130.165 86.7053 130.147L94.4438 126.873C94.4438 130.084 92.9592 132.997 90.6294 134.565C95.0374 140.516 94.4271 146.487 94.4271 146.487C93.9305 158.037 84.5577 159.29 82.1467 159.421V167.379C82.2541 167.396 82.359 167.412 82.4675 167.43C82.4675 167.43 94.7102 169.579 104.006 162.451C104.16 162.275 105.122 161.805 105.422 161.805C106.464 161.805 107.307 162.654 107.307 163.701C107.307 164.439 106.888 165.077 106.276 165.391L106.287 165.412C106.287 165.412 97.0938 170.857 95.8387 181.44C95.8387 181.44 94.5736 190.474 99.3108 190.077C99.3108 190.077 101.765 189.828 102.827 187.548C102.827 187.548 103.508 194.049 98.5168 194.834C98.5168 194.834 90.4218 196.445 92.052 181.384C92.052 181.384 92.8161 174.641 95.9343 170.112C95.9343 170.112 89.806 172.038 82.147 170.993V175.42C83.5425 175.623 84.6159 176.845 84.6159 178.325H88.0163L81.7372 191.988L75.4581 178.325H78.8583C78.8583 176.845 79.9322 175.623 81.3274 175.42V170.841C79.5817 170.502 74.1342 169.614 69.0615 170.583C70.2469 171.96 72.2595 177.683 71.7492 184.298C71.7492 184.298 70.8417 199.016 61.6544 193.636C61.6544 193.636 67.439 191.247 67.6658 183.513C67.6658 183.513 68.1078 175.456 65.1584 171.804C63.1968 172.718 61.5058 174.092 60.4042 176.113C60.3428 176.345 60.2343 176.558 60.0884 176.742C60.0813 176.758 60.0734 176.772 60.0663 176.788L60.0573 176.783C59.7297 177.172 59.2331 177.421 58.6768 177.421C57.6903 177.421 56.8904 176.639 56.8904 175.675C56.8904 175.416 60.4493 164.195 81.3274 167.252V159.432C70.0169 159.275 69.3459 148.857 69.3459 148.857C72.4655 156.079 79.1733 156.275 81.3274 156.14V138.353L73.94 135.228C70.9228 133.951 68.9137 130.612 68.9137 126.873L76.6525 130.147C78.9274 131.109 80.6275 133.244 81.3274 135.838V133.399C79.6142 131.841 78.128 130.275 76.8375 128.725L73.9402 127.499C70.9231 126.223 68.914 122.883 68.914 119.144L71.3815 120.188C67.8952 112.669 68.4553 106.985 68.4553 106.985C68.4212 104.087 68.7621 101.399 69.3568 98.9263C69.0719 97.9901 68.9137 96.991 68.9137 95.9592L70.0595 96.4438C70.3128 95.6668 70.5898 94.9139 70.8867 94.1861C69.647 92.5871 68.914 90.4832 68.914 88.2305L72.9682 89.9456C73.2064 89.5328 73.4493 89.1312 73.6954 88.7408C70.8165 87.3899 68.914 84.1377 68.914 80.5021L76.6528 83.7758C76.8388 83.8545 77.0208 83.9413 77.1989 84.0353C77.5387 83.6452 77.8731 83.2772 78.1993 82.9305L73.9405 81.1288C70.9233 79.8521 68.9143 76.5129 68.9143 72.7737L76.6531 76.0474C78.5146 76.835 79.9899 78.4089 80.8488 80.3759C81.0176 80.2289 81.1777 80.0926 81.3277 79.9669V76.5257L73.9402 73.4004C70.9231 72.1237 68.914 68.7845 68.914 65.0453L76.6528 68.3192C78.9277 69.2817 80.6278 71.4164 81.3277 74.0107V67.9384L73.9402 64.8133C70.9231 63.5364 68.914 60.1974 68.914 56.4582L76.6528 59.7319C78.9277 60.6941 80.6278 62.8291 81.3277 65.4234V60.2141L75.3283 57.7501C72.8521 56.733 71.2036 54.0727 71.2036 51.0935L77.5546 53.7019C79.3585 54.4431 80.7198 56.0585 81.3277 58.0323V56.0869L77.1585 52.5097C75.5308 51.1131 74.9065 48.402 75.5963 45.7266L79.7708 49.3084C81.152 50.4938 81.8074 52.6264 81.5534 54.88H81.8047C81.5509 52.6264 82.206 50.4938 83.5873 49.3084L87.762 45.7266C88.4518 48.402 87.8276 51.1131 86.1996 52.5097L82.147 55.9867V57.6742C82.8035 55.8637 84.1096 54.398 85.8037 53.7019L92.1544 51.0935C92.1544 54.0727 90.5062 56.7333 88.0297 57.7501L82.147 60.1663V65.039C82.9062 62.6201 84.5448 60.6457 86.7055 59.7319L94.4441 56.4582C94.4441 60.1974 92.435 63.5364 89.4178 64.8133L82.1473 67.8889V73.6263C82.9065 71.2074 84.5451 69.2333 86.7058 68.3192L94.4443 65.0453C94.4443 66.2457 94.2348 67.4037 93.854 68.4668C98.8365 61.6079 98.1325 56.677 98.1325 56.677C98.2781 40.5047 84.5815 40.0023 84.5815 40.0023C72.8106 39.2868 68.6725 47.8739 68.6725 47.8739L68.387 48.3388C64.8909 54.6005 62.0011 54.1623 62.0011 54.1623C61.9888 54.1604 61.98 54.153 61.968 54.1508C61.7068 55.0149 61.5194 56.1386 61.5194 56.1386C61.1984 57.2928 62.0278 60.3586 62.0278 60.3586C60.9842 58.6481 61.0178 56.6483 61.0178 56.6483C59.2049 58.688 57.8002 58.5001 57.8002 58.5001C59.0844 58.3121 60.5384 56.0916 60.5384 56.0916C60.8821 55.6973 61.199 54.5901 61.3976 53.7702C60.4586 52.4228 61.573 48.0881 61.573 48.0881C62.1082 45.0826 64.8213 45.4061 64.8213 45.4061C73.3165 34.2084 83.5826 35.1359 83.5826 35.1359C104.845 34.8496 104.346 56.8836 104.346 56.8836C104.347 68.8118 96.2726 77.6144 91.6222 81.6957L94.4424 80.5015ZM72.2401 202.047L70.5056 202.838L69.7705 202.594L71.1323 201.678L72.2401 202.047ZM92.7511 30.9959L92.9614 31.0945C93.6135 31.4158 94.0957 31.3535 94.4176 30.7006L97.5224 24.0827C97.8259 23.436 97.5522 23.0194 96.8949 22.711L96.6843 22.6121L96.7599 22.4504L103.37 25.5522L102.636 27.4083L102.438 27.3457C102.674 26.4243 102.451 25.8342 101.509 25.3918L99.1149 24.269L97.5861 27.528L99.8181 28.5754C100.513 28.9013 100.929 28.6265 101.369 27.7853L101.53 27.8607L100.113 30.8833L99.9511 30.8077C100.311 29.9444 100.256 29.4482 99.5681 29.11L97.3355 28.0626L95.5784 31.8067L97.9726 32.9298C98.58 33.2151 99.1039 33.3238 99.5492 33.2446C99.9948 33.1653 100.485 32.8637 101.006 32.3649L101.137 32.472L99.4831 34.3524L92.6746 31.1576L92.7511 30.9959ZM79.2093 28.9319L79.4416 28.9518C80.1639 29.0275 80.5955 28.8027 80.6712 28.0782L81.2941 20.7956C81.3553 20.0837 80.9545 19.7873 80.2308 19.7252L79.9989 19.7053L80.0142 19.5272L84.2722 19.8924C86.1969 20.0574 87.5921 20.6186 88.4849 21.592C89.3913 22.5659 89.7842 23.7584 89.664 25.1684C89.5386 26.633 88.934 27.7533 87.8486 28.5431C86.7788 29.3204 85.486 29.6507 83.9842 29.5215L79.1935 29.1103L79.2093 28.9319ZM63.6509 23.5049C65.436 22.7659 66.9336 22.6222 68.1742 23.0752C69.4273 23.5229 70.3248 24.4007 70.8662 25.7079C71.4288 27.0665 71.4069 28.3388 70.8067 29.5389C70.2139 30.7213 69.2172 31.6095 67.8245 32.1857L63.3807 34.0248L63.3121 33.8598L63.5274 33.771C64.2036 33.5057 64.4836 33.1074 64.2175 32.4296L61.4208 25.6768C61.1476 25.017 60.655 24.9383 59.9841 25.2156L59.7688 25.3047L59.7005 25.1397L63.6509 23.5049ZM50.9684 31.1907L59.0394 35.2452C59.5598 35.5113 59.9262 35.6547 60.1597 35.6582C60.3635 35.6686 60.6362 35.5692 60.9586 35.3569L61.0722 35.4949L58.1097 37.932L57.9963 37.7941C58.4766 37.2564 58.5711 36.9832 58.3528 36.7177C58.2392 36.5797 58.1135 36.4702 57.9471 36.3754L56.164 35.458L53.3708 37.7558L53.9287 39.6633C54.0618 40.1056 54.0899 40.1181 54.1336 40.1709C54.3675 40.4768 54.8333 40.396 55.2884 40.022L55.4018 40.1599L53.2963 41.892L53.1821 41.7543C53.5192 41.388 53.5656 40.9049 53.305 39.9627L50.873 31.2688L50.9684 31.1907ZM40.0805 42.7629C41.2672 41.2388 42.4977 40.3739 43.7997 40.155C45.1103 39.9255 46.3235 40.2455 47.4401 41.1153C48.5998 42.0185 49.2095 43.1359 49.2803 44.4761C49.3486 45.797 48.9213 47.0617 47.9955 48.2506L45.0414 52.0447L44.9004 51.9349L45.0436 51.751C45.5004 51.1869 45.5471 50.702 44.981 50.2438L39.215 45.7531C38.6511 45.3146 38.1845 45.4889 37.7384 46.0618L37.5955 46.2454L37.4545 46.1361L40.0805 42.7629ZM34.6802 50.7091L34.8357 50.7968L34.7209 50.9995C34.3426 51.6669 34.3737 52.1412 35.0018 52.4816L41.3598 56.0853C41.9934 56.444 42.3977 56.2325 42.7761 55.5651L42.8908 55.3624L43.0463 55.4507L40.9312 59.1809L40.7757 59.0929L40.8908 58.8902C41.2607 58.2654 41.2364 57.7794 40.6099 57.4081L34.2519 53.8044C33.6303 53.4525 33.1938 53.6932 32.8356 54.3245L32.7209 54.527L32.5657 54.439L34.6802 50.7091ZM28.6992 62.1753C28.8858 61.7483 29.1423 61.3675 29.4562 61.0263C29.7592 60.7102 29.9209 60.5119 29.9594 60.4239C30.0307 60.2608 29.9548 59.9884 29.7305 59.8155L29.7909 59.6772L32.6233 60.9156L32.552 61.079C31.8934 60.8359 31.2352 60.8326 30.6083 61.0664C29.9755 61.3131 29.5114 61.7232 29.2412 62.3078C28.912 63.0608 29.1248 63.9459 29.8299 64.2544C30.1321 64.386 30.4528 64.4071 30.8104 64.309C31.168 64.2115 31.93 63.7369 33.0856 62.9119C33.8915 62.3371 34.5682 61.9901 35.1277 61.8759C35.6749 61.7563 36.2066 61.8093 36.6975 62.024C37.3521 62.31 37.7963 62.8034 38.0372 63.5211C38.2891 64.2142 38.214 65.0035 37.8353 65.8698C37.5007 66.6358 36.8573 67.1467 36.5806 67.6086L36.4929 67.8094C36.4374 68.0395 36.5243 68.2867 36.7218 68.4176L36.6505 68.5809L33.6921 67.2879L33.7688 67.1122C34.5231 67.3073 35.2231 67.2844 35.8697 67.0735C36.5221 66.8505 36.9846 66.4096 37.2627 65.7389C37.6922 64.7904 37.4542 63.8943 36.6486 63.5419C36.2276 63.3728 35.7842 63.3583 35.3362 63.4916C34.8756 63.6192 34.2549 63.9754 33.456 64.568C32.6173 65.2179 31.9368 65.6086 31.4095 65.7515C30.882 65.8946 30.3629 65.8471 29.8469 65.6214C29.2174 65.346 28.7874 64.889 28.5623 64.238C28.3372 63.5869 28.3812 62.9034 28.6992 62.1753ZM19.1144 100.596L19.292 100.615C19.216 101.337 19.3152 101.706 19.59 101.721C19.7539 101.738 19.9632 101.719 20.1932 101.633L26.5341 99.6694L20.8776 96.7047C20.6798 96.6151 20.4943 96.5405 20.3167 96.5217C19.8657 96.4744 19.6824 96.7719 19.6316 97.3863L19.454 97.3678L19.7408 94.6432L19.9184 94.6618C19.9034 95.1975 20.1654 95.5969 21.1593 96.1285L28.9347 100.225L28.9174 100.389L20.4263 103.09C19.825 103.289 19.4319 103.482 19.2311 103.681C19.0303 103.88 18.9046 104.156 18.8825 104.498L18.7049 104.479L19.1144 100.596ZM18.5322 108.396L18.7106 108.402L18.7035 108.635C18.6797 109.402 18.9284 109.807 19.6428 109.815L26.948 110.044C27.6758 110.066 27.9348 109.691 27.9585 108.924L27.9656 108.691L28.144 108.696L28.011 112.982L27.8323 112.977L27.8397 112.744C27.876 112.019 27.6277 111.6 26.9005 111.564L19.5952 111.335C18.8811 111.313 18.6071 111.729 18.5847 112.455L18.5776 112.688L18.3989 112.682L18.5322 108.396ZM18.8458 128.2L18.7062 125.409L25.4219 119.106L19.5622 119.4C18.8486 119.435 18.609 119.873 18.6453 120.598L18.6568 120.831L18.4784 120.839L18.3096 117.46L18.488 117.451L18.4994 117.684C18.5377 118.45 18.8183 118.834 19.5313 118.784L28.0946 118.355L28.1041 118.547L20.6312 125.655L27.1772 125.328C27.9053 125.305 28.1323 124.896 28.094 124.129L28.0826 123.896L28.261 123.888L28.429 127.253L28.2506 127.262L28.2397 127.043C28.217 126.317 27.9359 125.92 27.2078 125.943L19.9209 126.308C19.3024 126.874 18.9887 127.479 19.0242 128.191L18.8458 128.2ZM21.8573 141.476C21.1516 141.588 20.9596 142.048 21.0727 142.765L21.1087 142.995L20.9322 143.023L20.2656 138.788L20.4421 138.76L20.4782 138.99C20.5976 139.748 20.9172 140.1 21.621 139.975L26.6294 139.185C28.679 138.862 29.3149 137.778 29.036 136.005C28.7697 134.314 27.6534 133.408 25.6312 133.726L20.7585 134.494C20.0528 134.605 19.8608 135.066 19.9736 135.783L20.0097 136.013L19.8332 136.041L19.307 132.699L19.4835 132.671L19.5195 132.901C19.6389 133.659 19.9564 133.997 20.6623 133.886L25.7929 133.077C28.0326 132.725 29.345 133.904 29.6838 136.055C30.1078 138.748 29.1213 140.346 26.8387 140.692L21.8573 141.476ZM31.2221 155.265L29.5414 155.064V155.087L30.6099 156.426L29.9089 156.828L29.2412 155.265H29.2188L28.4954 156.839L27.861 156.437L28.9185 155.076V155.053L27.2712 155.265V154.506L28.9073 154.718V154.696L27.8613 153.334L28.5402 152.943L29.2303 154.495H29.2527L29.9316 152.932L30.5992 153.312L29.5417 154.707V154.729L31.2224 154.506V155.265H31.2221ZM29.7761 92.9048L29.601 92.8702L29.6466 92.6418C29.8015 91.9323 29.6258 91.4785 28.9142 91.3228L21.7442 89.897C21.0434 89.7576 20.7044 90.1232 20.5629 90.8354L20.5173 91.0638L20.3421 91.0288L21.7663 83.8678L23.7445 84.1356L23.7314 84.3424C22.7801 84.335 22.2608 84.6923 22.0578 85.7138L21.542 88.3064L25.0731 89.0088L25.5539 86.5905C25.7036 85.8381 25.3367 85.4996 24.4147 85.2745L24.4493 85.0999L27.7244 85.7512L27.6897 85.9258C26.7652 85.7838 26.2967 85.9559 26.1336 86.7058L25.6525 89.1238L29.7092 89.9306L30.225 87.3374C30.3558 86.6793 30.3361 86.1446 30.152 85.7308C29.9682 85.3171 29.5578 84.9144 28.9483 84.5279L29.021 84.3746L31.2432 85.5289L29.7761 92.9048ZM34.4035 74.3724L29.0945 76.182L28.8467 76.9806L32.0748 77.9821C32.7703 78.198 33.1203 77.9051 33.3476 77.1721L33.4164 76.9497L33.5872 77.0024L32.3163 81.0982L32.1455 81.0455L32.2146 80.8228C32.4428 80.1338 32.3154 79.6634 31.624 79.4344L24.6425 77.2677C23.9601 77.056 23.585 77.3841 23.3697 78.0777L23.3008 78.3001L23.1301 78.2474L24.422 74.0861C25.0725 72.0358 26.1191 71.2129 27.7069 71.7057C28.9273 72.0844 29.6174 73.2455 29.4171 74.6322L33.4339 73.1389C34.3999 72.8075 34.8056 72.4742 35.0124 71.8071L35.1832 71.8598L34.4035 74.3724ZM38.9175 187.611L41.5339 185.616C42.3668 184.986 43.3684 184.228 44.1461 183.715L44.1278 183.687C43.2613 183.971 42.3182 184.241 41.2555 184.513L37.5228 185.473L37.1188 184.876L39.401 181.894C40.078 181.013 40.7121 180.228 41.3309 179.559L41.3186 179.541C40.5345 180.046 39.4658 180.704 38.5011 181.278L35.7356 182.914L35.2277 182.164L41.7079 178.394L42.387 179.396L40.0955 182.464C39.5043 183.234 38.965 183.902 38.426 184.491L38.4443 184.519C39.1729 184.249 39.9999 184.005 40.9642 183.747L44.6939 182.802L45.3731 183.805L39.4376 188.379L38.9175 187.611ZM42.404 192.196C41.1522 190.712 41.4437 188.682 43.1744 187.223C44.9898 185.692 47.1128 185.8 48.3788 187.301C49.6726 188.836 49.3136 190.837 47.6168 192.268C45.6487 193.927 43.6137 193.631 42.404 192.196ZM49.224 199.137L50.1488 194.778C50.351 193.821 50.5843 192.864 50.8738 192.021L50.8424 192.006C50.2318 192.727 49.6281 193.393 48.7713 194.294L46.5683 196.61L45.9203 195.994L51.076 190.574L51.8267 191.288L50.9255 195.655C50.7165 196.666 50.4815 197.53 50.2067 198.326L50.2302 198.332C50.8555 197.548 51.4669 196.874 52.2701 196.03L54.4273 193.762L55.0753 194.378L49.9196 199.798L49.224 199.137ZM52.7067 202.023L56.7462 196.731L54.9677 195.374L55.466 194.721L59.7948 198.024L59.2967 198.677L57.5095 197.314L53.47 202.606L52.7067 202.023ZM60.3269 206.137L59.9059 206.829L56.3716 204.682L60.2573 198.291L63.6517 200.353L63.2307 201.045L60.6477 199.476L59.4197 201.496L61.8628 202.98L61.4481 203.662L59.0049 202.178L57.604 204.483L60.3269 206.137ZM66.2091 207.532C66.0001 208.582 65.8635 209.312 65.8845 209.637L64.989 209.234C64.9661 208.993 65.0808 208.339 65.2742 207.403C65.4985 206.372 65.2996 205.857 64.5273 205.473L63.7113 205.106L62.3822 208.061L61.5164 207.672L64.5431 200.941C65.0218 201.047 65.6717 201.278 66.2687 201.547C67.194 201.963 67.7138 202.405 67.9586 202.977C68.1605 203.433 68.14 203.984 67.9034 204.51C67.4983 205.41 66.6724 205.757 65.8567 205.682L65.843 205.712C66.2785 206.127 66.3684 206.752 66.2091 207.532ZM67.3803 210.102L69.7377 203.005L70.6384 203.304L68.2813 210.401L67.3803 210.102ZM74.8849 212.014L74.5874 209.551L72.0328 209.028L70.8127 211.18L69.8508 210.983L73.7987 204.156L74.921 204.386L75.8791 212.217L74.8849 212.014ZM82.5568 209.854L79.8631 209.787L79.8806 209.065L82.5743 209.132L82.5568 209.854ZM89.9257 211.7C87.8879 212.079 86.1105 211.055 85.663 208.644C85.2357 206.342 86.4793 204.497 88.7209 204.08C89.6222 203.913 90.2268 204.004 90.4978 204.089L90.4166 204.905C90.0298 204.796 89.5014 204.759 88.9012 204.871C87.2066 205.185 86.2845 206.496 86.643 208.427C86.9776 210.227 88.2111 211.194 89.9705 210.868C90.5387 210.762 91.0958 210.535 91.4367 210.28L91.7698 210.996C91.4586 211.235 90.8051 211.537 89.9257 211.7ZM96.2619 209.888C94.4402 210.562 92.6298 209.598 91.8449 207.474C91.0215 205.247 91.8443 203.286 93.6862 202.606C95.5699 201.91 97.3301 202.928 98.0994 205.01C98.9922 207.425 98.0224 209.238 96.2619 209.888ZM101.131 207.675L97.5456 201.112L98.3786 200.657L101.575 206.509L104.333 205.002L104.722 205.714L101.131 207.675ZM108.16 203.527C106.581 204.657 104.581 204.204 103.264 202.361C101.883 200.429 102.16 198.321 103.758 197.179C105.391 196.012 107.357 196.53 108.647 198.335C110.144 200.431 109.687 202.436 108.16 203.527ZM116.951 195.809L114.545 193.564C113.784 192.848 112.869 191.987 112.232 191.307L112.209 191.329C112.634 192.136 113.057 193.02 113.503 194.022L115.074 197.541L114.554 198.038L111.232 196.288C110.25 195.767 109.37 195.273 108.606 194.775L108.59 194.791C109.22 195.479 110.047 196.423 110.775 197.278L112.851 199.73L112.197 200.356L107.395 194.599L108.27 193.762L111.678 195.508C112.536 195.962 113.285 196.382 113.957 196.815L113.98 196.793C113.592 196.119 113.213 195.345 112.798 194.437L111.242 190.919L112.117 190.082L117.621 195.168L116.951 195.809ZM119.903 192.563C119.482 193.065 119.126 193.421 118.888 193.635L113.251 188.906C113.449 188.531 113.818 187.987 114.246 187.477C114.856 186.75 115.377 186.389 115.96 186.28C116.426 186.173 116.914 186.283 117.365 186.661C117.917 187.125 118.1 187.891 117.824 188.67L117.841 188.684C118.426 188.264 119.403 188.015 120.253 188.728C120.747 189.142 120.96 189.647 121.002 190.167C121.037 190.866 120.675 191.644 119.903 192.563ZM122.794 188.852L116.801 184.379L117.369 183.619L123.362 188.092L122.794 188.852ZM127.046 182.724L124.651 182.082L123.212 184.257L124.753 186.191L124.211 187.01L119.352 180.801L119.984 179.846L127.606 181.878L127.046 182.724ZM129.118 76.2594L128.95 76.3216L128.036 73.855L131.14 69.1822L130.849 68.3987L127.68 69.574C126.998 69.8273 126.9 70.2731 127.166 70.9922L127.247 71.211L127.079 71.273L125.59 67.2516L125.757 67.1896L125.838 67.4081C126.077 68.0938 126.465 68.3883 127.153 68.1482L134.005 65.6064C134.675 65.3581 134.772 64.869 134.52 64.1882L134.439 63.9697L134.606 63.9077L136.12 67.9928C136.854 70.0147 136.526 71.3052 134.968 71.8833C133.77 72.3275 132.515 71.8284 131.829 70.6072L129.556 74.241C128.993 75.0925 128.875 75.6042 129.118 76.2594ZM130.664 82.4098L130.839 82.3724L130.888 82.6002C131.026 83.313 131.367 83.6605 132.082 83.5217L139.23 81.9937C139.929 81.8443 140.095 81.3744 139.943 80.6644L139.895 80.4365L140.069 80.3991L140.963 84.5795C141.367 86.4686 141.237 87.9671 140.568 89.1053C139.901 90.2565 138.875 90.9799 137.491 91.2758C136.054 91.5831 134.806 91.3315 133.734 90.524C132.678 89.7268 131.985 88.5862 131.67 87.1126L130.664 82.4098ZM136.966 155.265L135.286 155.064V155.087L136.354 156.426L135.653 156.828L134.986 155.265H134.964L134.24 156.839L133.606 156.437L134.663 155.076V155.053L133.016 155.265V154.506L134.652 154.718V154.696L133.606 153.334L134.285 152.943L134.974 154.495H134.996L135.675 152.932L136.343 153.312L135.286 154.707V154.729L136.966 154.506V155.265H136.966ZM142.775 136.844L134.071 139.25C133.507 139.402 133.139 139.541 132.963 139.695C132.806 139.824 132.67 140.081 132.573 140.454L132.396 140.428L132.959 136.633L133.136 136.659C133.139 137.38 133.253 137.646 133.593 137.697C133.769 137.723 133.937 137.72 134.123 137.679L136.061 137.163L136.591 133.585L134.898 132.544C134.503 132.305 134.474 132.315 134.405 132.305C134.027 132.235 133.736 132.607 133.649 133.189L133.472 133.163L133.872 130.466L134.049 130.493C134.045 130.991 134.334 131.38 135.16 131.904L142.792 136.722L142.775 136.844ZM143.417 123.095C142.988 123.601 142.388 123.841 141.619 123.815C140.48 123.777 139.625 123.035 139.512 121.88L139.43 121.877C139.274 123.257 138.282 124.128 137.06 124.087C136.25 124.046 135.615 123.709 135.155 123.077C134.695 122.445 134.476 121.615 134.51 120.587L134.662 116.041L134.841 116.047L134.833 116.28C134.795 117.005 135.042 117.425 135.77 117.463L143.075 117.709C143.788 117.733 144.064 117.317 144.088 116.591L144.096 116.358L144.274 116.364L144.141 120.349C144.083 121.677 143.831 122.601 143.417 123.095Z" fill="white"/>
<path d="M137.197 89.6296C138.501 89.3507 139.441 88.7576 139.993 87.8549C140.558 86.9496 140.712 85.8939 140.457 84.7015C140.34 84.222 140.176 83.7808 139.993 83.3857L131.972 85.1003C131.907 85.5205 131.95 85.9177 132.064 86.4537C132.331 87.6998 132.905 88.6136 133.789 89.1955C134.685 89.7741 135.827 89.9228 137.197 89.6296Z" fill="white"/>
<path d="M89.8624 145.627C89.4529 141.853 87.2129 138.83 85.3765 136.938L82.1484 138.303V156.051C91.2734 154.692 89.8624 145.627 89.8624 145.627Z" fill="white"/>
<path d="M82.5224 134.449C82.3976 134.342 82.2708 134.236 82.1484 134.129V135.453C82.2561 135.109 82.3798 134.773 82.5224 134.449Z" fill="white"/>
<path d="M131.575 68.7718C132.114 70.2238 133.198 70.859 134.401 70.4276C134.93 70.2317 135.301 69.8894 135.523 69.3832C135.751 68.8895 135.745 68.3218 135.512 67.6924C135.398 67.3839 135.25 67.1028 135.05 66.8408L131.379 68.2019C131.39 68.271 131.414 68.3352 131.437 68.3997L131.575 68.7718Z" fill="white"/>
<path d="M139.275 35.4531C131.81 24.9815 123.097 16.7485 113.379 10.9825C103.235 4.9637 92.4448 1.91211 81.3091 1.91211C70.1734 1.91211 59.3836 4.9637 49.2393 10.9825C39.5209 16.7485 30.8082 24.9815 23.3434 35.4531C8.11392 56.8161 -0.273438 85.1751 -0.273438 115.306C-0.273438 145.437 8.11392 173.796 23.3434 195.159C30.8085 205.63 39.5209 213.863 49.2393 219.629C59.3836 225.648 70.1734 228.7 81.3091 228.7C92.4445 228.7 103.234 225.648 113.379 219.629C123.097 213.863 131.81 205.63 139.274 195.159C154.504 173.796 162.891 145.437 162.891 115.306C162.892 85.1751 154.504 56.8161 139.275 35.4531ZM81.3091 223.509C39.1865 223.509 4.91726 174.969 4.91726 115.306C4.91726 55.6424 39.1865 7.10281 81.3091 7.10281C123.432 7.10281 157.701 55.6424 157.701 115.306C157.701 174.969 123.432 223.509 81.3091 223.509Z" fill="#186234"/>
<path d="M131.664 42.1985C125.167 32.6995 117.597 25.2389 109.164 20.0238C100.413 14.6121 91.1137 11.8682 81.5243 11.8682C71.9349 11.8682 62.6354 14.6121 53.8844 20.0238C45.4514 25.2389 37.8812 32.6995 31.3843 42.1985C18.0502 61.694 10.707 87.6043 10.707 115.157C10.707 142.709 18.0502 168.619 31.3843 188.115C37.8812 197.614 45.4514 205.074 53.8844 210.29C62.6354 215.701 71.9346 218.445 81.5243 218.445C91.1137 218.445 100.413 215.701 109.164 210.29C117.597 205.074 125.167 197.614 131.664 188.115C144.998 168.619 152.342 142.709 152.342 115.157C152.342 87.604 144.998 61.694 131.664 42.1985ZM130.763 187.498C117.595 206.75 100.108 217.352 81.5243 217.352C62.9403 217.352 45.4539 206.749 32.2864 187.498C19.0755 168.182 11.7998 142.491 11.7998 115.157C11.7998 87.8221 19.0753 62.1308 32.2864 42.8154C45.4539 23.5634 62.9403 12.9609 81.5243 12.9609C100.108 12.9609 117.595 23.5636 130.763 42.8154C143.973 62.1308 151.249 87.8221 151.249 115.157C151.249 142.491 143.973 168.182 130.763 187.498Z" fill="#186234"/>
<path d="M44.6967 182.802L40.967 183.747C40.0026 184.005 39.1757 184.249 38.4471 184.519L38.4288 184.491C38.9678 183.902 39.5071 183.234 40.0983 182.464L42.3898 179.396L41.7107 178.394L35.2305 182.164L35.7383 182.914L38.5039 181.278C39.4685 180.703 40.5373 180.045 41.3213 179.54L41.3336 179.558C40.7149 180.228 40.0808 181.013 39.4038 181.894L37.1215 184.876L37.5256 185.473L41.2582 184.512C42.321 184.24 43.264 183.971 44.1306 183.687L44.1489 183.714C43.3711 184.228 42.3696 184.985 41.5366 185.616L38.9202 187.611L39.4404 188.379L45.3758 183.805L44.6967 182.802Z" fill="#186234"/>
<path d="M48.3801 187.3C47.1141 185.799 44.9911 185.691 43.1757 187.222C41.445 188.681 41.1535 190.711 42.4053 192.196C43.615 193.631 45.65 193.927 47.6181 192.267C49.315 190.836 49.6739 188.835 48.3801 187.3ZM46.9371 191.528C45.6394 192.623 44.0133 192.881 43.0429 191.73C42.0794 190.586 42.6252 189.014 43.8467 187.983C45.1023 186.924 46.7368 186.574 47.7495 187.775C48.7694 188.984 48.0738 190.57 46.9371 191.528Z" fill="#186234"/>
<path d="M54.4289 193.762L52.2717 196.03C51.4685 196.874 50.8571 197.548 50.2318 198.332L50.2083 198.326C50.4831 197.53 50.7181 196.666 50.9271 195.655L51.8283 191.288L51.0776 190.574L45.9219 195.994L46.5699 196.61L48.7729 194.294C49.6297 193.393 50.2334 192.728 50.844 192.006L50.8754 192.021C50.5859 192.864 50.3525 193.821 50.1504 194.778L49.2256 199.137L49.9212 199.799L55.0769 194.379L54.4289 193.762Z" fill="#186234"/>
<path d="M59.297 198.677L59.7951 198.024L55.4663 194.721L54.968 195.374L56.7465 196.731L52.707 202.023L53.4703 202.606L57.5098 197.313L59.297 198.677Z" fill="#186234"/>
<path d="M61.4515 203.662L61.8662 202.98L59.423 201.495L60.651 199.475L63.2341 201.044L63.6551 200.352L60.2607 198.29L56.375 204.682L59.9093 206.829L60.3303 206.137L57.6074 204.482L59.0083 202.178L61.4515 203.662Z" fill="#186234"/>
<path d="M65.8598 205.682C66.6755 205.757 67.5014 205.411 67.9066 204.51C68.1431 203.984 68.1636 203.433 67.9617 202.977C67.717 202.405 67.1971 201.964 66.2718 201.548C65.6748 201.279 65.0249 201.048 64.5463 200.941L61.5195 207.672L62.3853 208.061L63.7144 205.106L64.5304 205.473C65.3027 205.857 65.5016 206.373 65.2773 207.404C65.0839 208.339 64.9692 208.993 64.9921 209.235L65.8876 209.637C65.8666 209.312 66.0032 208.583 66.2122 207.532C66.3715 206.753 66.2816 206.128 65.8461 205.712L65.8598 205.682ZM64.8998 204.836L64.0143 204.438L65.1339 201.948C65.2915 201.97 65.6082 202.064 66.0262 202.252C66.937 202.674 67.3908 203.34 66.9949 204.221C66.6444 205.001 65.8254 205.253 64.8998 204.836Z" fill="#186234"/>
<path d="M69.7734 202.594L70.5086 202.839L72.2431 202.047L71.1353 201.679L69.7734 202.594Z" fill="#186234"/>
<path d="M69.7322 203.002L67.375 210.099L68.2759 210.398L70.6331 203.301L69.7322 203.002Z" fill="#186234"/>
<path d="M73.7995 204.156L69.8516 210.983L70.8135 211.18L72.0336 209.028L74.5882 209.551L74.8857 212.014L75.8799 212.217L74.9218 204.386L73.7995 204.156ZM72.3773 208.328L73.5167 206.353C73.747 205.936 73.9558 205.514 74.1517 205.101L74.1732 205.105C74.1934 205.551 74.2112 206.009 74.2735 206.519L74.547 208.773L72.3773 208.328Z" fill="#186234"/>
<path d="M79.8727 209.781L82.5664 209.848L82.5844 209.127L79.8907 209.06L79.8727 209.781Z" fill="#186234"/>
<path d="M89.973 210.868C88.2136 211.194 86.9801 210.227 86.6455 208.427C86.2868 206.496 87.2091 205.185 88.9037 204.871C89.5039 204.759 90.0323 204.796 90.4191 204.905L90.5003 204.089C90.2292 204.004 89.6247 203.913 88.7234 204.08C86.4818 204.497 85.238 206.342 85.6655 208.643C86.1133 211.054 87.8907 212.079 89.9282 211.7C90.8076 211.537 91.4611 211.235 91.7723 210.996L91.4392 210.28C91.0983 210.535 90.5412 210.762 89.973 210.868Z" fill="#186234"/>
<path d="M93.6881 202.605C91.8463 203.286 91.0234 205.246 91.8468 207.473C92.6317 209.597 94.4422 210.561 96.2638 209.888C98.024 209.237 98.9941 207.424 98.1016 205.009C97.332 202.927 95.5718 201.91 93.6881 202.605ZM96.042 209.13C94.6402 209.648 93.3458 208.6 92.7915 207.101C92.2222 205.561 92.4473 203.904 93.9206 203.36C95.4052 202.811 96.6594 204.004 97.1755 205.399C97.7637 206.992 97.4544 208.608 96.042 209.13Z" fill="#186234"/>
<path d="M101.576 206.509L98.3796 200.656L97.5469 201.112L101.132 207.675L104.723 205.713L104.334 205.002L101.576 206.509Z" fill="#186234"/>
<path d="M103.761 197.178C102.164 198.321 101.887 200.428 103.268 202.361C104.584 204.203 106.584 204.656 108.164 203.527C109.69 202.436 110.148 200.43 108.651 198.335C107.36 196.53 105.394 196.011 103.761 197.178ZM107.75 202.854C106.534 203.723 105.009 203.053 104.08 201.753C103.125 200.416 102.906 198.759 104.184 197.845C105.471 196.925 106.995 197.745 107.86 198.955C108.848 200.337 108.975 201.978 107.75 202.854Z" fill="#186234"/>
<path d="M111.242 190.919L112.798 194.437C113.213 195.345 113.592 196.119 113.98 196.793L113.957 196.815C113.285 196.382 112.536 195.962 111.678 195.508L108.27 193.762L107.395 194.599L112.197 200.356L112.851 199.73L110.775 197.278C110.047 196.423 109.219 195.479 108.59 194.791L108.606 194.775C109.37 195.273 110.251 195.767 111.232 196.287L114.554 198.038L115.074 197.541L113.503 194.022C113.057 193.02 112.634 192.136 112.208 191.329L112.232 191.306C112.869 191.987 113.784 192.848 114.545 193.564L116.951 195.809L117.621 195.168L112.117 190.082L111.242 190.919Z" fill="#186234"/>
<path d="M120.256 188.727C119.406 188.014 118.429 188.262 117.845 188.683L117.827 188.669C118.104 187.89 117.921 187.124 117.368 186.66C116.917 186.282 116.43 186.172 115.963 186.279C115.38 186.388 114.859 186.749 114.25 187.476C113.822 187.985 113.452 188.53 113.254 188.905L118.892 193.634C119.129 193.42 119.486 193.064 119.907 192.562C120.678 191.643 121.041 190.865 121.005 190.166C120.963 189.647 120.75 189.141 120.256 188.727ZM116.211 190.146L114.365 188.599C114.438 188.46 114.574 188.247 114.854 187.912C115.471 187.177 116.156 186.896 116.828 187.46C117.38 187.923 117.41 188.718 116.765 189.486L116.211 190.146ZM119.504 191.868C119.286 192.127 119.103 192.33 118.958 192.45L116.772 190.617L117.277 190.016C117.944 189.221 118.821 188.832 119.602 189.488C120.436 190.187 120.135 191.116 119.504 191.868Z" fill="#186234"/>
<path d="M116.8 184.383L122.793 188.855L123.361 188.095L117.367 183.622L116.8 184.383Z" fill="#186234"/>
<path d="M119.355 180.801L124.214 187.01L124.756 186.191L123.215 184.257L124.654 182.082L127.049 182.724L127.609 181.878L119.987 179.846L119.355 180.801ZM120.374 180.809C120.795 180.956 121.226 181.11 121.724 181.243L123.916 181.829L122.694 183.676L121.287 181.883C120.985 181.514 120.673 181.162 120.362 180.827L120.374 180.809Z" fill="#186234"/>
<path d="M29.6854 136.055C29.3466 133.904 28.0342 132.724 25.7945 133.077L20.6639 133.886C19.958 133.997 19.6405 133.659 19.5211 132.901L19.4851 132.671L19.3086 132.699L19.8348 136.041L20.0113 136.013L19.9752 135.783C19.8624 135.065 20.0544 134.605 20.7601 134.494L25.6328 133.726C27.655 133.407 28.7712 134.313 29.0376 136.005C29.3165 137.777 28.6805 138.862 26.631 139.185L21.6226 139.975C20.9188 140.1 20.5992 139.747 20.4798 138.99L20.4437 138.76L20.2672 138.788L20.9338 143.023L21.1103 142.995L21.0743 142.765C20.9611 142.048 21.1532 141.588 21.8589 141.476L26.8403 140.692C29.1228 140.346 30.1094 138.748 29.6854 136.055Z" fill="#186234"/>
<path d="M19.9238 126.308L27.2107 125.942C27.9388 125.92 28.2199 126.317 28.2426 127.042L28.2535 127.262L28.4319 127.253L28.2639 123.887L28.0855 123.896L28.097 124.129C28.1352 124.895 27.9082 125.304 27.1801 125.327L20.6341 125.655L28.1071 118.546L28.0975 118.355L19.5342 118.784C18.8212 118.834 18.5406 118.45 18.5024 117.684L18.4909 117.451L18.3125 117.46L18.4813 120.839L18.6597 120.83L18.6483 120.597C18.6119 119.872 18.8515 119.435 19.5651 119.399L25.4249 119.106L18.7092 125.409L18.8488 128.199L19.0272 128.191C18.9917 127.479 19.3053 126.873 19.9238 126.308Z" fill="#186234"/>
<path d="M18.5881 112.455C18.6105 111.729 18.8845 111.313 19.5987 111.336L26.9039 111.564C27.6311 111.6 27.8795 112.019 27.8431 112.744L27.8358 112.977L28.0144 112.983L28.1475 108.697L27.9691 108.691L27.962 108.924C27.9382 109.691 27.6792 110.067 26.9514 110.044L19.6462 109.816C18.9318 109.807 18.6832 109.402 18.707 108.635L18.7141 108.402L18.5357 108.396L18.4023 112.683L18.581 112.688L18.5881 112.455Z" fill="#186234"/>
<path d="M19.2332 103.68C19.434 103.481 19.8271 103.288 20.4284 103.089L28.9196 100.388L28.9368 100.224L21.1614 96.1279C20.1675 95.5963 19.9055 95.1969 19.9206 94.6612L19.743 94.6426L19.4561 97.3671L19.6337 97.3857C19.6845 96.7713 19.8678 96.4738 20.3189 96.5211C20.4965 96.5399 20.682 96.6145 20.8798 96.7041L26.5362 99.6688L20.1954 101.632C19.9654 101.718 19.7561 101.737 19.5922 101.72C19.3173 101.705 19.2182 101.336 19.2941 100.614L19.1166 100.596L18.707 104.479L18.8846 104.498C18.9067 104.155 19.0324 103.88 19.2332 103.68Z" fill="#186234"/>
<path d="M28.9499 84.5272C29.5594 84.9138 29.9698 85.3168 30.1536 85.7301C30.3378 86.144 30.3574 86.6786 30.2266 87.3368L29.7108 89.9299L25.6541 89.1232L26.1352 86.7051C26.2983 85.9552 26.7668 85.7831 27.6913 85.9252L27.726 85.7506L24.451 85.0993L24.4163 85.2739C25.3383 85.499 25.7052 85.8377 25.5555 86.5898L25.0747 89.0082L21.5436 88.3058L22.0594 85.7132C22.2624 84.692 22.7817 84.3344 23.733 84.3417L23.7461 84.1349L21.7679 83.8672L20.3438 91.0282L20.5189 91.0631L20.5645 90.8347C20.706 90.1225 21.045 89.7573 21.7458 89.8963L28.9158 91.3221C29.6275 91.4778 29.8031 91.9316 29.6482 92.6411L29.6026 92.8695L29.7777 92.9042L31.2448 85.5279L29.0226 84.3737L28.9499 84.5272Z" fill="#186234"/>
<path d="M33.4366 73.1396L29.4198 74.6329C29.6201 73.2462 28.93 72.0851 27.7096 71.7064C26.1218 71.2136 25.0752 72.0364 24.4248 74.0868L23.1328 78.2481L23.3036 78.3008L23.3724 78.0784C23.5877 77.3848 23.9628 77.0567 24.6452 77.2684L31.6267 79.4351C32.3182 79.664 32.4455 80.1345 32.2174 80.8235L32.1482 81.0461L32.319 81.0989L33.5899 77.0031L33.4191 76.9504L33.3503 77.1728C33.123 77.9058 32.773 78.1986 32.0775 77.9828L28.8494 76.9813L29.0972 76.1827L34.4062 74.3731L35.1859 71.8611L35.0151 71.8083C34.8083 72.4749 34.4026 72.8082 33.4366 73.1396ZM28.5036 76.242L28.3858 76.6215C28.3656 76.687 28.3451 76.7523 28.3118 76.8138L24.572 75.653C24.5734 75.3235 24.6275 75.0102 24.725 74.6963C24.9239 74.0548 25.2659 73.6019 25.747 73.3491C26.2322 73.0836 26.7352 73.0391 27.2734 73.2063C28.4896 73.598 28.9625 74.7635 28.5036 76.242Z" fill="#186234"/>
<path d="M29.8473 65.6219C30.3634 65.8473 30.8825 65.8951 31.41 65.7519C31.9373 65.6091 32.6178 65.2184 33.4565 64.5685C34.2553 63.9759 34.876 63.6194 35.3366 63.4921C35.7847 63.359 36.2281 63.3732 36.649 63.5423C37.4547 63.8948 37.6927 64.7908 37.2632 65.7394C36.9851 66.4101 36.5226 66.8507 35.8702 67.0739C35.2235 67.2846 34.5236 67.3075 33.7693 67.1127L33.6925 67.2884L36.651 68.5814L36.7223 68.4181C36.5247 68.2872 36.4379 68.0397 36.4933 67.8099L36.581 67.6091C36.8578 67.1472 37.5011 66.6363 37.8358 65.8702C38.2145 65.0039 38.2896 64.2147 38.0377 63.5216C37.7967 62.8036 37.3525 62.3102 36.698 62.0245C36.207 61.8097 35.6754 61.7567 35.1282 61.8764C34.5687 61.9906 33.892 62.3376 33.086 62.9124C31.9304 63.7377 31.1685 64.2119 30.8109 64.3095C30.4533 64.4073 30.1325 64.3865 29.8304 64.2548C29.1253 63.9464 28.9124 63.0613 29.2416 62.3083C29.5118 61.7237 29.976 61.3136 30.6087 61.0669C31.2357 60.8331 31.8938 60.8364 32.5525 61.0795L32.6238 60.9161L29.7913 59.6777L29.7309 59.816C29.9552 59.9889 30.0312 60.2613 29.9599 60.4244C29.9214 60.5123 29.7596 60.7107 29.4566 61.0268C29.1427 61.368 28.8862 61.7491 28.6996 62.1758C28.3816 62.9039 28.3376 63.5874 28.5628 64.239C28.7879 64.8895 29.2179 65.3465 29.8473 65.6219Z" fill="#186234"/>
<path d="M32.8363 54.3244C33.1945 53.6931 33.631 53.4524 34.2526 53.8043L40.6106 57.408C41.2371 57.779 41.2614 58.2653 40.8915 58.8901L40.7765 59.0928L40.9319 59.1808L43.047 55.4506L42.8915 55.3623L42.7768 55.565C42.3984 56.2324 41.9941 56.4442 41.3605 56.0852L35.0025 52.4815C34.3744 52.1411 34.3433 51.6671 34.7216 50.9994L34.8364 50.7967L34.6809 50.709L32.5664 54.4389L32.7216 54.5269L32.8363 54.3244Z" fill="#186234"/>
<path d="M37.7409 46.0615C38.187 45.4886 38.6539 45.3143 39.2175 45.7528L44.9836 50.2436C45.5496 50.7017 45.5029 51.1864 45.0461 51.7508L44.903 51.9347L45.0439 52.0445L47.998 48.2504C48.9238 47.0614 49.3511 45.7968 49.2828 44.4759C49.2121 43.1356 48.6023 42.0182 47.4426 41.1151C46.326 40.2452 45.1128 39.9256 43.8023 40.1548C42.5002 40.3736 41.2697 41.2386 40.083 42.7627L37.457 46.1356L37.598 46.2448L37.7409 46.0615ZM40.5029 43.0725C41.252 42.11 42.159 41.5492 43.2157 41.3997C44.2615 41.2418 45.3209 41.5806 46.3722 42.3996C47.4778 43.2605 48.0985 44.23 48.2316 45.2887C48.3542 46.3394 48.0239 47.3669 47.2412 48.3722C46.9044 48.8047 46.6279 49.0932 46.2646 49.3134L39.7937 44.2735C39.9789 43.8798 40.2108 43.47 40.5029 43.0725Z" fill="#186234"/>
<path d="M53.184 41.7541L53.2982 41.8917L55.4037 40.1597L55.2904 40.0217C54.8352 40.3957 54.3694 40.4766 54.1356 40.1706C54.0919 40.1179 54.0637 40.1053 53.9307 39.663L53.3728 37.7556L56.166 35.4577L57.9491 36.3751C58.1155 36.4699 58.2412 36.5795 58.3548 36.7174C58.5731 36.9833 58.4786 37.2564 57.9983 37.7938L58.1117 37.9318L61.0742 35.4946L60.9605 35.3567C60.6382 35.5687 60.3655 35.6684 60.1617 35.658C59.9281 35.6544 59.5618 35.511 59.0413 35.2449L50.9703 31.1904L50.875 31.2688L53.307 39.9627C53.5676 40.9047 53.5212 41.3877 53.184 41.7541ZM52.115 33.3804L55.5994 35.158L53.1977 37.1338L52.115 33.3804Z" fill="#186234"/>
<path d="M59.9864 25.2149C60.6574 24.9373 61.15 25.016 61.4232 25.676L64.2199 32.4288C64.4859 33.1066 64.2059 33.505 63.5298 33.7702L63.3145 33.859L63.3831 34.024L67.8268 32.1849C69.2196 31.609 70.2162 30.7208 70.809 29.5382C71.4092 28.3378 71.4311 27.0655 70.8686 25.7072C70.3271 24.3999 69.4297 23.5221 68.1765 23.0744C66.936 22.6214 65.4383 22.7651 63.6532 23.5041L59.7031 25.1386L59.7714 25.3037L59.9864 25.2149ZM63.8655 23.9814C64.9922 23.515 66.0585 23.4749 67.0512 23.8672C68.0388 24.2467 68.7926 25.0646 69.3026 26.2959C69.8387 27.5906 69.8996 28.7402 69.4922 29.7264C69.08 30.6998 68.285 31.4303 67.1075 31.9177C66.601 32.1272 66.218 32.2412 65.7932 32.2535L62.6553 24.6758C63.011 24.4242 63.415 24.1827 63.8655 23.9814Z" fill="#186234"/>
<path d="M87.8498 28.5423C88.9353 27.7525 89.5398 26.6324 89.6652 25.1676C89.7852 23.7576 89.3926 22.5654 88.4861 21.5912C87.5933 20.6178 86.1981 20.0569 84.2735 19.8916L80.0154 19.5264L80.0001 19.7045L80.2321 19.7244C80.9555 19.7864 81.3563 20.0829 81.2954 20.7948L80.6725 28.0774C80.5968 28.8019 80.1652 29.027 79.4428 28.951L79.2106 28.9311L79.1953 29.109L83.9861 29.5201C85.4873 29.6496 86.78 29.3193 87.8498 28.5423ZM83.4708 28.9521C82.9244 28.9051 82.5321 28.8306 82.1491 28.6456L82.8485 20.4727C83.2801 20.4132 83.7497 20.385 84.2423 20.4132C85.4567 20.5175 86.4216 20.9727 87.1226 21.7775C87.8247 22.5687 88.1184 23.6418 88.0048 24.9698C87.8851 26.3661 87.4103 27.4149 86.5956 28.1036C85.7812 28.7781 84.7398 29.0611 83.4708 28.9521Z" fill="#186234"/>
<path d="M101.138 32.4718L101.007 32.3647C100.486 32.8636 99.9958 33.1652 99.5502 33.2444C99.1046 33.3236 98.5806 33.2149 97.9736 32.9297L95.5793 31.8066L97.3365 28.0624L99.569 29.1099C100.257 29.4481 100.312 29.9442 99.9521 30.8075L100.114 30.8832L101.531 27.8605L101.37 27.7851C100.93 28.626 100.514 28.9011 99.819 28.5752L97.587 27.5278L99.1158 24.2689L101.51 25.3917C102.452 25.834 102.675 26.4241 102.439 27.3456L102.636 27.4081L103.371 25.552L96.7609 22.4502L96.6852 22.6119L96.8958 22.7108C97.5531 23.0193 97.8269 23.4359 97.5233 24.0825L94.4185 30.7004C94.0967 31.3536 93.6145 31.4156 92.9624 31.0944L92.752 30.9957L92.6758 31.1575L99.4843 34.3522L101.138 32.4718Z" fill="#186234"/>
<path d="M115.448 45.7273L115.453 45.3292C113.973 45.4363 112.766 44.9891 111.934 44.0979C111.195 43.3068 110.868 42.4129 110.943 41.3865C111.028 40.3696 111.568 39.3976 112.572 38.4592C113.566 37.5309 114.554 37.058 115.564 37.0328C116.585 36.9981 117.446 37.3566 118.147 38.1076C119.335 39.379 119.27 40.901 118.388 42.2315L118.53 42.3429L120.666 40.141L120.554 40.021C120.303 40.2358 120.023 40.2172 119.874 40.0377C119.799 39.9574 119.734 39.8875 119.583 39.4845C119.224 38.6769 118.884 38.1319 118.426 37.6412C117.435 36.5796 116.281 36.0081 114.944 35.9259C113.617 35.8338 112.436 36.2807 111.401 37.2661C110.357 38.2415 109.81 39.4083 109.763 40.7458C109.735 42.0845 110.197 43.2647 111.141 44.2758C112.263 45.4776 113.692 45.9608 115.448 45.7273Z" fill="#186234"/>
<path d="M120.152 56.7035C120.84 57.8883 121.814 58.6377 123.057 58.9461C124.301 59.2546 125.519 59.0543 126.743 58.3443C127.967 57.6342 128.776 56.6742 129.176 55.4752C129.578 54.2764 129.457 53.111 128.804 51.9851C128.139 50.8658 127.172 50.1288 125.939 49.7826C124.706 49.4368 123.45 49.6272 122.201 50.3509C120.994 51.0355 120.186 51.9958 119.772 53.2017C119.383 54.3933 119.504 55.5591 120.152 56.7035ZM120.645 54.0742C121.091 53.229 121.899 52.4591 123.052 51.7906C124.265 51.0871 125.343 50.8098 126.268 50.9541C127.194 51.0983 127.877 51.5095 128.295 52.202C128.707 52.9129 128.706 53.7057 128.297 54.5608C127.894 55.4277 127.093 56.2095 125.893 56.9059C124.799 57.54 123.759 57.8271 122.789 57.7717C121.82 57.7162 121.111 57.2881 120.651 56.4942C120.21 55.7358 120.204 54.9315 120.645 54.0742Z" fill="#186234"/>
<path d="M131.433 52.0582L131.587 51.9686L130.865 50.7245L128.492 50.4385L128.788 50.948L131.433 52.0582Z" fill="#186234"/>
<path d="M131.829 70.6068C132.516 71.828 133.77 72.3271 134.968 71.8829C136.527 71.3048 136.854 70.0142 136.12 67.9923L134.606 63.9072L134.439 63.9692L134.52 64.1878C134.772 64.8686 134.675 65.3576 134.005 65.606L127.153 68.1478C126.465 68.3879 126.078 68.0934 125.838 67.4077L125.757 67.1891L125.59 67.2511L127.08 71.2726L127.247 71.2105L127.166 70.9917C126.9 70.2724 126.998 69.8265 127.68 69.5736L130.849 68.3983L131.14 69.1818L128.037 73.8545L128.951 76.3212L129.118 76.2589C128.875 75.6041 128.993 75.0921 129.557 74.2403L131.829 70.6068ZM135.049 66.8408C135.248 67.1028 135.396 67.3839 135.511 67.6923C135.744 68.3221 135.749 68.8898 135.522 69.3831C135.299 69.8896 134.928 70.2317 134.4 70.4276C133.197 70.8589 132.112 70.2238 131.574 68.7717L131.436 68.3994C131.412 68.3352 131.388 68.2707 131.377 68.2016L135.049 66.8408Z" fill="#186234"/>
<path d="M133.733 90.5243C134.805 91.3319 136.053 91.5835 137.491 91.2761C138.875 90.9802 139.901 90.2568 140.568 89.1056C141.237 87.9675 141.367 86.469 140.962 84.5798L140.069 80.3994L139.895 80.4368L139.943 80.6647C140.095 81.375 139.928 81.8446 139.23 81.9941L132.082 83.522C131.367 83.6608 131.026 83.3133 130.888 82.6005L130.839 82.3727L130.664 82.4101L131.669 87.1132C131.985 88.5868 132.678 89.7271 133.733 90.5243ZM132.063 86.4545C131.948 85.9185 131.905 85.5213 131.97 85.1011L139.991 83.3865C140.174 83.7816 140.338 84.2228 140.455 84.7022C140.71 85.8947 140.556 86.9504 139.991 87.8557C139.439 88.7584 138.499 89.3517 137.195 89.6304C135.825 89.9235 134.683 89.7749 133.787 89.1963C132.904 88.6144 132.329 87.7005 132.063 86.4545Z" fill="#186234"/>
<path d="M138.627 99.2027C137.243 99.3007 136.1 99.8198 135.208 100.73C134.345 101.639 133.952 102.743 134.045 104.055C134.155 105.421 134.713 106.516 135.702 107.33C136.692 108.143 137.878 108.487 139.288 108.372C140.699 108.258 141.842 107.74 142.72 106.83C143.597 105.921 143.989 104.817 143.885 103.519C143.766 102.223 143.209 101.141 142.244 100.298C141.28 99.4551 140.065 99.086 138.627 99.2027ZM142.039 101.497C142.812 102.026 143.252 102.691 143.332 103.496C143.398 104.315 143.056 105.03 142.319 105.626C141.583 106.235 140.523 106.596 139.14 106.708C137.881 106.81 136.818 106.621 135.966 106.154C135.115 105.687 134.659 104.995 134.585 104.08C134.514 103.206 134.854 102.477 135.62 101.893C136.388 101.322 137.448 100.976 138.776 100.868C140.173 100.755 141.265 100.969 142.039 101.497Z" fill="#186234"/>
<path d="M144.098 116.358L144.09 116.591C144.066 117.317 143.79 117.733 143.076 117.709L135.771 117.463C135.044 117.425 134.796 117.005 134.835 116.28L134.842 116.047L134.664 116.041L134.511 120.588C134.477 121.615 134.697 122.445 135.157 123.077C135.617 123.709 136.251 124.046 137.061 124.087C138.284 124.128 139.275 123.257 139.432 121.877L139.514 121.88C139.626 123.035 140.481 123.777 141.621 123.816C142.39 123.841 142.989 123.601 143.419 123.095C143.833 122.601 144.085 121.677 144.142 120.35L144.276 116.364L144.098 116.358ZM139.306 119.871C139.248 121.583 138.296 122.524 137.087 122.483C135.784 122.44 135.033 121.44 135.078 120.112C135.091 119.715 135.145 119.347 135.281 118.968L139.29 119.102C139.294 119.391 139.312 119.665 139.306 119.871ZM143.602 120.084C143.556 121.44 142.785 122.319 141.782 122.285C140.464 122.241 139.722 121.393 139.771 119.969C139.779 119.709 139.816 119.436 139.881 119.123L143.575 119.247C143.603 119.632 143.607 119.906 143.602 120.084Z" fill="#186234"/>
<path d="M134.052 130.493L133.875 130.466L133.475 133.163L133.652 133.189C133.738 132.606 134.029 132.234 134.408 132.304C134.476 132.315 134.505 132.305 134.9 132.544L136.593 133.585L136.063 137.162L134.125 137.678C133.939 137.72 133.771 137.723 133.595 137.696C133.255 137.646 133.142 137.38 133.138 136.659L132.961 136.632L132.398 140.427L132.575 140.454C132.672 140.08 132.808 139.823 132.966 139.695C133.142 139.541 133.509 139.401 134.074 139.25L142.777 136.844L142.795 136.722L135.163 131.904C134.336 131.38 134.047 130.99 134.052 130.493ZM137.139 133.929L140.459 135.987L136.683 137.005L137.139 133.929Z" fill="#186234"/>
<path d="M135.286 154.707L136.343 153.311L135.676 152.932L134.996 154.495H134.974L134.285 152.943L133.606 153.334L134.652 154.695V154.718L133.016 154.506V155.265L134.663 155.053V155.075L133.606 156.437L134.24 156.839L134.963 155.265H134.986L135.653 156.828L136.354 156.426L135.286 155.086V155.064L136.966 155.265V154.506L135.286 154.729V154.707Z" fill="#186234"/>
<path d="M29.5437 154.707L30.6012 153.311L29.9335 152.932L29.2546 154.495H29.2322L28.5422 152.943L27.8633 153.334L28.9096 154.695V154.718L27.2734 154.506V155.265L28.9208 155.053V155.075L27.8633 156.437L28.4976 156.839L29.221 155.265H29.2434L29.9111 156.828L30.6122 156.426L29.5437 155.086V155.064L31.2244 155.265V154.506L29.5437 154.729V154.707Z" fill="#186234"/>
<path d="M81.3264 176.245V175.419C79.9311 175.622 78.8572 176.844 78.8572 178.325H75.457L81.7361 191.988L88.0152 178.325H84.6148C84.6148 176.844 83.5414 175.622 82.1459 175.419V176.245H81.3264Z" fill="#186234"/>
<path d="M81.3281 170.84V175.418V176.244H82.1477V175.418V170.991C82.0663 170.98 81.9857 170.971 81.9037 170.959C81.904 170.959 81.6967 170.911 81.3281 170.84Z" fill="#186234"/>
<path d="M82.1474 57.6734V55.9859L82.0253 56.0908C81.921 55.6859 81.8505 55.2808 81.8051 54.8789H81.5538C81.5084 55.2808 81.438 55.6859 81.3336 56.0908L81.3281 56.0862V58.0316C81.5546 58.7665 81.6797 59.5497 81.6797 60.3578C81.6795 59.4172 81.8447 58.5086 82.1474 57.6734Z" fill="#186234"/>
<path d="M81.3281 107.439V112.652C81.5568 113.5 81.6797 114.395 81.6797 115.316C81.6797 114.254 81.8466 113.227 82.1477 112.268V107.39L81.6797 107.588L81.3281 107.439Z" fill="#186234"/>
<path d="M82.1477 135.453V134.129C81.8685 133.886 81.5961 133.642 81.3281 133.398V135.838C81.5568 136.685 81.6797 137.581 81.6797 138.501C81.6797 137.439 81.8466 136.412 82.1477 135.453Z" fill="#186234"/>
<path d="M81.3281 91.9811V97.1947C81.5568 98.0419 81.6797 98.9377 81.6797 99.8581C81.6797 98.7965 81.8466 97.7695 82.1477 96.8104V91.9316L81.6797 92.1297L81.3281 91.9811Z" fill="#186234"/>
<path d="M81.3281 115.167V120.381C81.5568 121.228 81.6797 122.124 81.6797 123.044C81.6797 121.983 81.8466 120.956 82.1477 119.997V115.118L81.6797 115.316L81.3281 115.167Z" fill="#186234"/>
<path d="M82.1477 65.0387V60.166L81.6797 60.3583L81.3281 60.2138V65.4231C81.5568 66.2703 81.6797 67.1661 81.6797 68.0868C81.6797 67.0248 81.8466 65.9979 82.1477 65.0387Z" fill="#186234"/>
<path d="M81.75 90.9414C81.7071 90.9974 81.6632 91.0537 81.6211 91.1094C81.6544 91.446 81.6771 91.7858 81.6771 92.1303C81.6771 91.7282 81.705 91.3321 81.75 90.9414Z" fill="#174323"/>
<path d="M82.1477 76.4756L81.6797 76.6737L81.3281 76.525V79.9662C81.651 79.6963 81.9275 79.4761 82.1477 79.3062V76.4756Z" fill="#186234"/>
<path d="M81.3281 99.7103V104.924C81.5568 105.771 81.6797 106.667 81.6797 107.588C81.6797 106.526 81.8466 105.499 82.1477 104.54V99.6611L81.6797 99.8592L81.3281 99.7103Z" fill="#186234"/>
<path d="M82.1477 156.051V138.303L81.6797 138.501L81.3281 138.352V156.139C81.7598 156.111 82.0127 156.071 82.0127 156.071C82.0586 156.065 82.1026 156.057 82.1477 156.051Z" fill="#186234"/>
<path d="M82.1477 73.6251V67.8877L81.6797 68.0858L81.3281 67.9371V74.0094C81.5568 74.8566 81.6797 75.7524 81.6797 76.6731C81.6797 75.6115 81.8466 74.5842 82.1477 73.6251Z" fill="#186234"/>
<path d="M81.3711 122.915C81.6287 123.371 81.8869 123.814 82.1453 124.236V122.847L81.6773 123.045L81.3711 122.915Z" fill="#186234"/>
<path d="M81.5849 159.434C81.4981 159.434 81.4139 159.432 81.3281 159.431V167.251C81.598 167.29 81.8721 167.333 82.1477 167.378V159.42C81.7906 159.439 81.5849 159.434 81.5849 159.434Z" fill="#186234"/>
<path d="M68.9141 95.958C68.9141 96.9901 69.072 97.9892 69.3572 98.9252C69.5626 98.0717 69.7984 97.2442 70.0598 96.4427L68.9141 95.958Z" fill="#186234"/>
<path d="M81.6776 107.588C81.6776 106.667 81.5546 105.772 81.326 104.924C80.6867 102.555 79.2125 100.569 77.2286 99.5098C77.1261 99.8412 77.0335 100.165 76.9505 100.482C78.8907 101.559 80.275 103.657 80.6829 106.089L76.3038 104.236C76.2738 104.616 76.2568 104.97 76.25 105.292L81.3257 107.439L81.6776 107.588Z" fill="#186234"/>
<path d="M76.9511 100.48C76.5757 101.909 76.3877 103.179 76.3047 104.235L80.6837 106.088C80.2756 103.656 78.8913 101.558 76.9511 100.48Z" fill="white"/>
<path d="M82.1479 107.39L89.4185 104.314C92.4359 103.037 94.4447 99.6979 94.4447 95.959L86.7062 99.2327C84.5455 100.147 82.9069 102.121 82.1477 104.54C81.8466 105.499 81.6797 106.526 81.6797 107.588L82.1479 107.39ZM87.0037 100.186L93.4506 97.458C93.0017 100.133 91.3743 102.408 89.1221 103.361L82.6747 106.088C83.1241 103.413 84.7509 101.138 87.0037 100.186Z" fill="#186234"/>
<path d="M93.4478 97.457L87.0009 100.185C84.7482 101.138 83.1213 103.412 82.6719 106.087L89.1193 103.36C91.3715 102.407 92.9989 100.132 93.4478 97.457Z" fill="white"/>
<path d="M69.909 89.7293L72.4809 90.8172C72.641 90.5211 72.8035 90.2304 72.9683 89.9446L68.9141 88.2295C68.9141 90.4823 69.6473 92.5864 70.8868 94.1851C71.0234 93.8505 71.1644 93.5216 71.3089 93.1973C70.6128 92.2007 70.124 91.012 69.909 89.7293Z" fill="#186234"/>
<path d="M81.6786 99.8583C81.6786 98.9379 81.5557 98.0421 81.327 97.195C80.9994 95.9812 80.4498 94.8714 79.7277 93.9316C79.5532 94.2264 79.3862 94.5193 79.2283 94.8091C79.955 95.8222 80.4629 97.0414 80.6839 98.3588L78.0541 97.2463C77.923 97.5588 77.8009 97.8667 77.6875 98.1697L81.327 99.7094L81.6786 99.8583Z" fill="#186234"/>
<path d="M71.3103 93.1977C71.6791 92.3699 72.0719 91.5763 72.482 90.8174L69.9102 89.7295C70.1252 91.0121 70.6139 92.2008 71.3103 93.1977Z" fill="white"/>
<path d="M79.2289 94.8096C78.7732 95.6461 78.385 96.4602 78.0547 97.2467L80.6845 98.3592C80.4634 97.0418 79.9556 95.8226 79.2289 94.8096Z" fill="white"/>
<path d="M82.1479 99.6605L89.4185 96.5846C92.4359 95.308 94.4447 91.9687 94.4447 88.2295L86.7062 91.5032C84.5455 92.4176 82.9069 94.3919 82.1477 96.8105C81.8466 97.7697 81.6797 98.7967 81.6797 99.8583L82.1479 99.6605ZM87.0037 92.4566L93.4506 89.7296C93.0017 92.405 91.3743 94.6791 89.1221 95.632L82.6747 98.3593C83.1241 95.6839 84.7509 93.4095 87.0037 92.4566Z" fill="#186234"/>
<path d="M93.4478 89.7295L87.0009 92.4565C84.7482 93.4094 83.1213 95.6838 82.6719 98.3592L89.1193 95.6319C91.3715 94.6792 92.9989 92.4049 93.4478 89.7295Z" fill="white"/>
<path d="M74.2378 87.9039C71.9856 86.951 70.3579 84.6766 69.9093 82.0015L76.3562 84.7286C76.4182 84.7548 76.4777 84.7856 76.5387 84.8141C76.7602 84.5455 76.9807 84.286 77.199 84.0352C77.0208 83.9412 76.8389 83.8543 76.6529 83.7756L68.9141 80.502C68.9141 84.1376 70.8166 87.3897 73.6955 88.7407C73.875 88.456 74.0556 88.1768 74.2381 87.9042L74.2378 87.9039Z" fill="#186234"/>
<path d="M81.6784 92.1303C81.6784 91.7855 81.6557 91.446 81.6224 91.1094C81.43 91.3645 81.2456 91.6186 81.0664 91.8713L81.327 91.9814L81.6784 92.1303Z" fill="#186234"/>
<path d="M69.9102 82.001C70.3587 84.6761 71.9864 86.9504 74.2387 87.9033H74.2389C74.9968 86.7696 75.7754 85.7386 76.5395 84.8132C76.4786 84.7851 76.4188 84.754 76.357 84.7277L69.9102 82.001Z" fill="white"/>
<path d="M93.4503 82.0014C93.0014 84.6768 91.374 86.9508 89.1218 87.9037L82.6744 90.631C82.7421 90.2273 82.8399 89.8344 82.9593 89.4519C82.5307 89.9513 82.1294 90.448 81.7526 90.9408C81.7073 91.3318 81.6797 91.7279 81.6797 92.1301L82.1477 91.932L89.4182 88.8561C92.4356 87.5794 94.4444 84.2399 94.4444 80.501L91.6223 81.6948C90.3165 82.8409 89.2816 83.6146 88.7705 83.9804L93.4503 82.0014Z" fill="#186234"/>
<path d="M89.1229 87.9034C91.3751 86.9505 93.0025 84.6761 93.4514 82.001L88.7721 83.9805C88.5473 84.1415 88.4219 84.2251 88.4219 84.2251C86.2366 85.9716 84.4398 87.7285 82.9607 89.4521C82.8411 89.8343 82.7435 90.2274 82.6758 90.6312L89.1229 87.9034Z" fill="white"/>
<path d="M74.2373 80.1747C71.985 79.2218 70.3574 76.9474 69.9088 74.2723L76.3556 76.9996C78.0511 77.717 79.3919 79.1835 80.1432 81.0057C80.3921 80.7771 80.6276 80.567 80.8486 80.3747C79.9897 78.4076 78.5141 76.8338 76.6529 76.0462L68.9141 72.7725C68.9141 76.5117 70.9231 79.8509 73.9403 81.1276L78.1991 82.9293C78.4516 82.6607 78.6988 82.4061 78.9395 82.1638L74.2373 80.1747Z" fill="#186234"/>
<path d="M76.357 76.9998L69.9102 74.2725C70.3587 76.9476 71.9864 79.2219 74.2387 80.1748L78.9406 82.1642C79.3652 81.7372 79.7692 81.3507 80.1443 81.0059C79.3933 79.1837 78.0522 77.7169 76.357 76.9998Z" fill="white"/>
<path d="M86.2197 76.2773C85.4409 76.6792 84.7393 77.2226 84.1328 77.8758C84.8661 77.3395 85.5608 76.8065 86.2197 76.2773Z" fill="#284D1F"/>
<path d="M81.3278 74.0094C80.6278 71.4151 78.9277 69.2801 76.6529 68.3179L68.9141 65.0439C68.9141 68.7832 70.9231 72.1224 73.9403 73.3991L81.3278 76.5244L81.6794 76.673C81.6794 75.7526 81.5564 74.8568 81.3278 74.0094ZM74.2378 72.4462C71.9856 71.4933 70.3579 69.2189 69.9093 66.5438L76.3562 69.2711C78.6084 70.224 80.2361 72.4989 80.6849 75.174L74.2378 72.4462Z" fill="#186234"/>
<path d="M76.357 69.2712L69.9102 66.5439C70.3587 69.2191 71.9864 71.4934 74.2387 72.4463L80.6855 75.1739C80.2369 72.499 78.6092 70.2244 76.357 69.2712Z" fill="white"/>
<path d="M82.1479 76.475L89.4185 73.3991C89.4775 73.3739 89.5338 73.3431 89.592 73.3166C91.3434 71.6255 92.7413 69.9972 93.8543 68.4654C94.2354 67.4024 94.4447 66.2444 94.4447 65.0439L86.7062 68.3179C84.5455 69.232 82.9069 71.2061 82.1477 73.625C81.8466 74.5842 81.6797 75.6111 81.6797 76.673L82.1479 76.475ZM87.0037 69.2708L93.4506 66.5435C93.0017 69.2189 91.3743 71.4933 89.1221 72.4459L82.6747 75.1735C83.1241 72.4983 84.7509 70.224 87.0037 69.2708Z" fill="#186234"/>
<path d="M93.4478 66.5439L87.0009 69.2713C84.7482 70.2242 83.1213 72.4988 82.6719 75.1742L89.1193 72.4466C91.3715 71.4937 92.9989 69.2193 93.4478 66.5439Z" fill="white"/>
<path d="M81.3278 65.4232C80.6278 62.8289 78.9277 60.6936 76.6529 59.7317L68.9141 56.458C68.9141 60.1972 70.9231 63.5362 73.9403 64.8131L81.3278 67.9382L81.6794 68.0868C81.6794 67.1662 81.5564 66.2703 81.3278 65.4232ZM74.2378 63.8599C71.9856 62.907 70.3579 60.6324 69.9093 57.957L76.3562 60.6846C78.6084 61.6375 80.2361 63.9121 80.6849 66.587L74.2378 63.8599Z" fill="#186234"/>
<path d="M76.357 60.6846L69.9102 57.957C70.3587 60.6322 71.9864 62.9068 74.2387 63.86L80.6855 66.5873C80.2369 63.9119 78.6092 61.6375 76.357 60.6846Z" fill="white"/>
<path d="M82.1479 67.8887L89.4185 64.8131C92.4359 63.5362 94.4447 60.1972 94.4447 56.458L86.7062 59.7317C84.5455 60.6455 82.9069 62.6199 82.1477 65.0388C81.8466 65.998 81.6797 67.0249 81.6797 68.0868L82.1479 67.8887ZM87.0037 60.6846L93.4506 57.957C93.0017 60.6324 91.3743 62.9068 89.1221 63.8599L82.6747 66.5873C83.1241 63.9116 84.7509 61.6375 87.0037 60.6846Z" fill="#186234"/>
<path d="M93.4478 57.957L87.0009 60.6846C84.7482 61.6375 83.1213 63.9119 82.6719 66.587L89.1193 63.8597C91.3715 62.9068 92.9989 60.6324 93.4478 57.957Z" fill="white"/>
<path d="M82.146 55.9857L86.1985 52.5087C87.8265 51.1122 88.4508 48.401 87.7609 45.7256L83.5863 49.3074C82.205 50.4928 81.5499 52.6254 81.8037 54.879C81.849 55.2808 81.9195 55.686 82.0239 56.0909L82.146 55.9857ZM84.196 49.9503L87.1782 47.6554C87.2225 49.4451 86.6307 51.0646 85.5888 51.8659L82.6071 54.1607C82.5629 52.371 83.1546 50.7515 84.196 49.9503Z" fill="#186234"/>
<path d="M85.5894 51.8667C86.6314 51.0652 87.2231 49.4459 87.1789 47.6562L84.1967 49.9511C83.155 50.7526 82.5635 52.3719 82.6078 54.1616L85.5894 51.8667Z" fill="white"/>
<path d="M82.1477 60.1656L88.0304 57.7494C90.5069 56.7323 92.1551 54.072 92.1551 51.0928L85.8044 53.7012C84.1103 54.3973 82.8042 55.863 82.1477 57.6735C81.8447 58.5089 81.6797 59.4173 81.6797 60.3579L82.1477 60.1656ZM86.0483 54.4604L91.3393 52.2875C90.9705 54.4192 89.6351 56.2313 87.7872 56.9902L82.4963 59.1632C82.8643 57.0318 84.1999 55.2197 86.0483 54.4604Z" fill="#186234"/>
<path d="M91.3391 52.2871L86.0482 54.4601C84.1997 55.2193 82.8644 57.0314 82.4961 59.1629L87.7871 56.9899C89.6349 56.2307 90.9703 54.4186 91.3391 52.2871Z" fill="white"/>
<path d="M81.5548 54.879C81.8089 52.6254 81.1535 50.4928 79.7722 49.3074L75.5978 45.7256C74.908 48.401 75.5322 51.1122 77.1599 52.5087L81.3291 56.086L81.3346 56.0906C81.4387 55.686 81.5095 55.2808 81.5548 54.879ZM80.7516 54.161L77.77 51.8662C76.7277 51.0646 76.1357 49.4454 76.1802 47.6557L79.1624 49.9505C80.2039 50.7518 80.7959 52.3713 80.7516 54.161Z" fill="#186234"/>
<path d="M79.1603 49.9511L76.1781 47.6562C76.1338 49.4459 76.7259 51.0654 77.7678 51.8667L80.7495 54.1616C80.794 52.3719 80.202 50.7524 79.1603 49.9511Z" fill="white"/>
<path d="M81.3272 58.0317C80.7193 56.0581 79.358 54.4424 77.5541 53.7012L71.2031 51.0928C71.2031 54.072 72.8516 56.7326 75.3278 57.7494L81.3272 60.2134L81.6788 60.3579C81.6788 59.5498 81.5537 58.7665 81.3272 58.0317ZM75.5718 56.9902C73.7233 56.2313 72.388 54.4192 72.0197 52.2875L77.3104 54.4604C79.1591 55.2197 80.4942 57.0318 80.8625 59.1632L75.5718 56.9902Z" fill="#186234"/>
<path d="M77.3102 54.4601L72.0195 52.2871C72.3878 54.4188 73.7234 56.231 75.5716 56.9899L80.862 59.1629C80.494 57.0314 79.1587 55.2193 77.3102 54.4601Z" fill="white"/>
<path d="M104.347 56.8826C104.347 56.8826 104.846 34.8486 83.5833 35.135C83.5833 35.135 73.3172 34.2072 64.8219 45.4052C64.8219 45.4052 62.1088 45.0817 61.5736 48.0871C61.5736 48.0871 60.4592 52.4219 61.3982 53.7693C61.1996 54.5892 60.8827 55.6964 60.539 56.0906C60.539 56.0906 59.0851 58.3112 57.8008 58.4991C57.8008 58.4991 59.2055 58.6871 61.0185 56.6474C61.0185 56.6474 60.9849 58.6472 62.0285 60.3577C62.0285 60.3577 61.1991 57.2916 61.5201 56.1376C61.5201 56.1376 61.7075 55.014 61.9686 54.1499C61.9807 54.1521 61.9894 54.1594 62.0017 54.1613C62.0017 54.1613 64.8916 54.5995 68.3876 48.3379L68.6731 47.8729C68.6731 47.8729 72.8115 39.2859 84.5821 40.0014C84.5821 40.0014 98.2787 40.5038 98.1331 56.6761C98.1331 56.6761 98.8368 61.607 93.8546 68.4658C92.7419 69.9979 91.3439 71.6261 89.5922 73.3169C88.5893 74.2854 87.4703 75.2741 86.221 76.2773C85.562 76.8065 84.8673 77.3395 84.134 77.8757C83.6792 78.2085 83.2115 78.5421 82.7268 78.877C82.7268 78.877 82.5159 79.0221 82.1479 79.3059C81.9277 79.4758 81.6512 79.696 81.3283 79.966C81.1783 80.0914 81.0182 80.2279 80.8494 80.3749C80.6284 80.5673 80.3929 80.7773 80.144 81.006C79.7689 81.3508 79.3649 81.7374 78.9403 82.1644C78.6994 82.4067 78.4524 82.6613 78.2 82.9298C77.8738 83.2765 77.5394 83.6445 77.1995 84.0346C76.9812 84.2854 76.7608 84.545 76.5392 84.8135C75.7751 85.7388 74.9965 86.7699 74.2386 87.9036C74.0564 88.1763 73.8756 88.4555 73.6961 88.7402C73.4499 89.1305 73.2073 89.5321 72.9688 89.9449C72.8041 90.2304 72.6415 90.5214 72.4815 90.8175C72.0714 91.5762 71.6785 92.3698 71.3097 93.1979C71.1652 93.5222 71.0242 93.8511 70.8876 94.1857C70.5907 94.9135 70.3139 95.6665 70.0604 96.4434C69.799 97.245 69.5632 98.0725 69.3577 98.9259C68.7627 101.398 68.4221 104.086 68.4562 106.985C68.4562 106.985 67.8962 112.668 71.3824 120.188L76.6537 122.418C79.6714 123.695 81.6799 127.034 81.6799 130.773C81.6799 128.902 82.1831 127.131 83.0639 125.669C82.7618 125.217 82.4555 124.739 82.1479 124.237C81.8897 123.815 81.6313 123.372 81.3737 122.915L73.9409 119.771C70.9237 118.494 68.9146 115.155 68.9146 111.416L76.6534 114.69C77.1676 114.907 77.6495 115.188 78.1 115.517C77.8904 114.88 77.6948 114.224 77.5126 113.553L73.9411 112.043C70.924 110.766 68.9149 107.427 68.9149 103.687L76.292 106.808C76.2619 106.429 76.2392 105.918 76.2529 105.292C76.2597 104.97 76.2767 104.616 76.3067 104.236C76.39 103.18 76.5777 101.91 76.9531 100.482C77.0362 100.165 77.1288 99.8412 77.2312 99.5098C77.3656 99.0754 77.5175 98.6287 77.6888 98.1708C77.8022 97.8676 77.9243 97.5597 78.0554 97.2474C78.3857 96.4609 78.7737 95.6465 79.2296 94.8103C79.3875 94.5204 79.5545 94.2275 79.729 93.9328C80.129 93.2572 80.5738 92.5693 81.0677 91.8721C81.2469 91.6191 81.4313 91.3653 81.6236 91.1101C81.6657 91.0541 81.71 90.9981 81.7526 90.9421C82.1293 90.4493 82.5307 89.9526 82.9593 89.4532C84.4384 87.7296 86.2352 85.9727 88.4205 84.2262C88.4205 84.2262 88.5459 84.1426 88.7707 83.9816C89.2816 83.6158 90.3164 82.8424 91.6226 81.6961C96.2732 77.6135 104.347 68.8106 104.347 56.8826Z" fill="#186234"/>
<path d="M85.3768 136.937C87.213 138.83 89.4532 141.852 89.8627 145.627C89.8627 145.627 91.2737 154.692 82.1487 156.051C82.1034 156.057 82.0597 156.065 82.0138 156.071C82.0138 156.071 81.7608 156.111 81.3292 156.139C79.175 156.275 72.467 156.078 69.3477 148.855C69.3477 148.855 70.0186 159.274 81.3292 159.431C81.4147 159.432 81.4991 159.435 81.586 159.435C81.586 159.435 81.7917 159.44 82.1487 159.42C84.5597 159.289 93.9325 158.035 94.4291 146.486C94.4291 146.486 95.0394 140.515 90.6314 134.563C90.2487 134.821 89.8452 135.046 89.4196 135.227L85.3768 136.937Z" fill="#186234"/>
<path d="M76.8359 128.725C78.1265 130.275 79.6127 131.841 81.3259 133.399C81.5939 133.643 81.8663 133.886 82.1455 134.129C82.2681 134.236 82.3949 134.343 82.5195 134.45C83.3604 132.539 84.7848 131.007 86.5781 130.206C86.3002 129.9 85.9787 129.532 85.6222 129.104L81.6772 130.773L76.8359 128.725Z" fill="#186234"/>
<path d="M81.3278 135.838C80.6278 133.243 78.9277 131.108 76.6529 130.146L68.9141 126.872C68.9141 130.612 70.9231 133.951 73.9403 135.227L81.3278 138.353L81.6794 138.501C81.6794 137.58 81.5564 136.685 81.3278 135.838ZM74.2378 134.274C71.9856 133.321 70.3579 131.046 69.9093 128.371L76.3562 131.099C78.6084 132.052 80.2361 134.326 80.6849 137.001L74.2378 134.274Z" fill="#186234"/>
<path d="M76.357 131.099L69.9102 128.371C70.3587 131.046 71.9864 133.321 74.2387 134.274L80.6855 137.001C80.2369 134.326 78.6092 132.052 76.357 131.099Z" fill="white"/>
<path d="M82.5217 134.449C82.3791 134.773 82.2556 135.109 82.1477 135.453C81.8466 136.412 81.6797 137.439 81.6797 138.501L82.1477 138.303L85.3757 136.937L89.4182 135.227C89.8441 135.047 90.2473 134.822 90.6301 134.564C92.9599 132.996 94.4444 130.083 94.4444 126.872L86.7059 130.146C86.663 130.164 86.6226 130.187 86.5803 130.206C84.787 131.007 83.3623 132.539 82.5217 134.449ZM87.0032 131.099L93.45 128.372C93.0012 131.047 91.3737 133.321 89.1215 134.275L82.6741 137.002C83.1235 134.326 84.7504 132.052 87.0032 131.099Z" fill="#186234"/>
<path d="M89.1193 134.274C91.3715 133.321 92.9989 131.046 93.4478 128.371L87.0009 131.099C84.7482 132.052 83.1213 134.326 82.6719 137.001L89.1193 134.274Z" fill="white"/>
<path d="M76.6528 122.418L71.3816 120.187L68.9141 119.144C68.9141 122.882 70.9231 126.222 73.9403 127.498L76.8375 128.724L81.6791 130.773C81.6791 127.033 79.6703 123.694 76.6528 122.418ZM74.2375 126.546C71.9853 125.593 70.3576 123.318 69.909 120.643L76.3559 123.371C78.6081 124.324 80.2358 126.598 80.6847 129.273L74.2375 126.546Z" fill="#186234"/>
<path d="M76.357 123.371L69.9102 120.644C70.3587 123.319 71.9864 125.593 74.2387 126.546L80.6855 129.274C80.2369 126.598 78.6092 124.324 76.357 123.371Z" fill="white"/>
<path d="M85.6246 129.103L89.4185 127.498C92.4359 126.222 94.4447 122.882 94.4447 119.144L86.7062 122.417C85.1987 123.055 83.9431 124.208 83.0637 125.668C82.1829 127.13 81.6797 128.901 81.6797 130.772L85.6246 129.103ZM87.0034 123.37L93.4503 120.643C93.0014 123.318 91.374 125.593 89.1218 126.545L82.6744 129.273C83.1238 126.597 84.7507 124.323 87.0034 123.37Z" fill="#186234"/>
<path d="M89.1193 126.546C91.3715 125.593 92.9989 123.319 93.4478 120.644L87.0009 123.371C84.7482 124.324 83.1213 126.598 82.6719 129.274L89.1193 126.546Z" fill="white"/>
<path d="M81.3278 120.38C80.786 118.372 79.6427 116.643 78.0994 115.517C77.6489 115.188 77.167 114.906 76.6529 114.689L68.9141 111.415C68.9141 115.154 70.9231 118.493 73.9403 119.77L81.3731 122.914L81.6791 123.044C81.6794 122.123 81.5564 121.227 81.3278 120.38ZM74.2378 118.817C71.9856 117.864 70.3579 115.589 69.9093 112.914L76.3562 115.642C78.6084 116.595 80.2361 118.869 80.6849 121.544L74.2378 118.817Z" fill="#186234"/>
<path d="M76.357 115.642L69.9102 112.915C70.3587 115.59 71.9864 117.865 74.2387 118.818L80.6855 121.545C80.2369 118.87 78.6092 116.595 76.357 115.642Z" fill="white"/>
<path d="M82.1479 122.846L89.4185 119.77C92.4359 118.493 94.4447 115.154 94.4447 111.415L86.7062 114.689C84.5455 115.603 82.9069 117.577 82.1477 119.996C81.8466 120.955 81.6797 121.982 81.6797 123.044L82.1479 122.846ZM87.0037 115.642L93.4506 112.915C93.0017 115.59 91.3743 117.864 89.1221 118.817L82.6747 121.544C83.1241 118.869 84.7509 116.595 87.0037 115.642Z" fill="#186234"/>
<path d="M93.4478 112.915L87.0009 115.642C84.7482 116.595 83.1213 118.87 82.6719 121.545L89.1193 118.818C91.3715 117.865 92.9989 115.59 93.4478 112.915Z" fill="white"/>
<path d="M81.6794 115.316C81.6794 114.396 81.5564 113.5 81.3278 112.653C80.6278 110.058 78.9277 107.923 76.6529 106.961L76.2911 106.808L68.9141 103.688C68.9141 107.427 70.9231 110.766 73.9403 112.043L77.5118 113.553L81.3275 115.168L81.6794 115.316ZM74.2378 111.089C71.9856 110.137 70.3579 107.862 69.9093 105.187L76.3562 107.914C78.6084 108.867 80.2361 111.142 80.6849 113.817L74.2378 111.089Z" fill="#186234"/>
<path d="M76.357 107.914L69.9102 105.187C70.3587 107.862 71.9864 110.136 74.2387 111.089L80.6855 113.817C80.2369 111.142 78.6092 108.867 76.357 107.914Z" fill="white"/>
<path d="M82.1479 115.118L89.4185 112.042C92.4359 110.765 94.4447 107.426 94.4447 103.687L86.7062 106.96C84.5455 107.874 82.9069 109.849 82.1477 112.267C81.8466 113.226 81.6797 114.253 81.6797 115.315L82.1479 115.118ZM87.0037 107.913L93.4506 105.186C93.0017 107.861 91.3743 110.136 89.1221 111.088L82.6747 113.816C83.1241 111.141 84.7509 108.866 87.0037 107.913Z" fill="#186234"/>
<path d="M93.4478 105.186L87.0009 107.913C84.7482 108.866 83.1213 111.141 82.6719 113.816L89.1193 111.088C91.3715 110.136 92.9989 107.861 93.4478 105.186Z" fill="white"/>
<path d="M56.8906 175.674C56.8906 176.638 57.6905 177.42 58.677 177.42C59.2333 177.42 59.7299 177.171 60.0575 176.782L60.0665 176.787C60.0736 176.771 60.0815 176.757 60.0886 176.741C60.2345 176.557 60.343 176.344 60.4045 176.112C61.506 174.09 63.1971 172.716 65.1586 171.803C68.108 175.455 67.666 183.512 67.666 183.512C67.4392 191.246 61.6546 193.634 61.6546 193.634C70.8419 199.014 71.7494 184.297 71.7494 184.297C72.2597 177.682 70.2471 171.959 69.0617 170.582C74.1344 169.612 79.5819 170.501 81.3276 170.84C81.6962 170.911 81.9033 170.959 81.9033 170.959C81.9849 170.971 82.0655 170.981 82.1472 170.992C89.806 172.037 95.9345 170.112 95.9345 170.112C92.8163 174.641 92.0522 181.383 92.0522 181.383C90.422 196.444 98.517 194.833 98.517 194.833C103.508 194.048 102.827 187.547 102.827 187.547C101.765 189.827 99.311 190.076 99.311 190.076C94.5738 190.474 95.8389 181.439 95.8389 181.439C97.094 170.856 106.287 165.411 106.287 165.411L106.276 165.39C106.888 165.076 107.308 164.438 107.308 163.7C107.308 162.653 106.463 161.804 105.422 161.804C105.123 161.804 104.161 162.274 104.006 162.451C94.7104 169.578 82.4677 167.429 82.4677 167.429C82.3595 167.411 82.2543 167.395 82.1469 167.378C81.8713 167.334 81.5973 167.291 81.3274 167.251C60.4495 164.194 56.8906 175.415 56.8906 175.674Z" fill="#186234"/>
</g>
<defs>
<clipPath id="clip0_49_6">
<rect width="162.627" height="230" fill="white"/>
</clipPath>
</defs>
</svg>
